{"asset":{"generator":"3D Builder","version":"2.0"},"scene":0,"scenes":[{"nodes":[0,1,2,3,4,5,6,7,10]}],"nodes":[{"mesh":0,"matrix":[1,0,0,0,0,-1.1920928955078125E-7,-0.99999988079071045,0,0,0.99999988079071045,-1.1920928955078125E-7,0,-0.2822624146938324,0.0090000294148921967,-0.20620913803577423,1]},{"mesh":1,"matrix":[1,0,0,0,0,-1.1920928955078125E-7,-0.99999988079071045,0,0,0.99999988079071045,-1.1920928955078125E-7,0,-0.2822624146938324,0.0090000294148921967,-0.20620913803577423,1]},{"mesh":2,"matrix":[1,0,0,0,0,-1.1920928955078125E-7,-0.99999988079071045,0,0,0.99999988079071045,-1.1920928955078125E-7,0,-0.2822624146938324,0.0090000294148921967,-0.20620913803577423,1]},{"mesh":3,"matrix":[1,0,0,0,0,-1.1920928955078125E-7,-0.99999988079071045,0,0,0.99999988079071045,-1.1920928955078125E-7,0,-0.2822624146938324,0.0090000294148921967,-0.20620913803577423,1]},{"mesh":4,"matrix":[1,0,0,0,0,-1.1920928955078125E-7,-0.99999988079071045,0,0,0.99999988079071045,-1.1920928955078125E-7,0,-0.2822624146938324,0.0090000294148921967,-0.20620913803577423,1]},{"mesh":5,"matrix":[1,0,0,0,0,-1.1920928955078125E-7,-0.99999988079071045,0,0,0.99999988079071045,-1.1920928955078125E-7,0,-0.2822624146938324,0.0090000294148921967,-0.20620913803577423,1]},{"mesh":6,"matrix":[1,0,0,0,0,-1.1920928955078125E-7,-0.99999988079071045,0,0,0.99999988079071045,-1.1920928955078125E-7,0,-0.2822624146938324,0.0090000294148921967,-0.20620913803577423,1]},{"children":[8,9]},{"mesh":7,"matrix":[1,0,0,0,0,-1.1920928955078125E-7,-0.99999988079071045,0,0,0.99999988079071045,-1.1920928955078125E-7,0,-0.2822624146938324,0.0090000294148921967,-0.20620913803577423,1]},{"mesh":8,"matrix":[1,0,0,0,0,-1.1920928955078125E-7,-0.99999988079071045,0,0,0.99999988079071045,-1.1920928955078125E-7,0,-0.2822624146938324,0.0090000294148921967,-0.20620913803577423,1]},{"children":[11,12,13,14]},{"mesh":9,"matrix":[39.370079040527344,0,0,0,0,-4.6932791519793682E-6,-39.370075225830078,0,0,39.370075225830078,-4.6932791519793682E-6,0,-0.2822624146938324,0.0090000294148921967,-0.20620913803577423,1]},{"mesh":10,"matrix":[39.370079040527344,0,0,0,0,-4.6932791519793682E-6,-39.370075225830078,0,0,39.370075225830078,-4.6932791519793682E-6,0,-0.2822624146938324,0.0090000294148921967,-0.20620913803577423,1]},{"mesh":11,"matrix":[39.370079040527344,0,0,0,0,-4.6932791519793682E-6,-39.370075225830078,0,0,39.370075225830078,-4.6932791519793682E-6,0,-0.2822624146938324,0.0090000294148921967,-0.20620913803577423,1]},{"mesh":12,"matrix":[39.370079040527344,0,0,0,0,-4.6932791519793682E-6,-39.370075225830078,0,0,39.370075225830078,-4.6932791519793682E-6,0,-0.2822624146938324,0.0090000294148921967,-0.20620913803577423,1]}],"meshes":[{"primitives":[{"attributes":{"POSITION":0},"mode":4,"indices":1,"material":0}]},{"primitives":[{"attributes":{"POSITION":2},"mode":4,"indices":3,"material":1}]},{"primitives":[{"attributes":{"POSITION":4},"mode":4,"indices":5,"material":2}]},{"primitives":[{"attributes":{"POSITION":6},"mode":4,"indices":7,"material":3}]},{"primitives":[{"attributes":{"POSITION":8},"mode":4,"indices":9,"material":4}]},{"primitives":[{"attributes":{"POSITION":10},"mode":4,"indices":11,"material":5}]},{"primitives":[{"attributes":{"POSITION":12},"mode":4,"indices":13,"material":6}]},{"primitives":[{"attributes":{"POSITION":14},"mode":4,"indices":15,"material":7}]},{"primitives":[{"attributes":{"POSITION":16},"mode":4,"indices":17,"material":7}]},{"primitives":[{"attributes":{"POSITION":18},"mode":4,"indices":19,"material":8}]},{"primitives":[{"attributes":{"POSITION":20},"mode":4,"indices":21,"material":8}]},{"primitives":[{"attributes":{"POSITION":22},"mode":4,"indices":23,"material":8}]},{"primitives":[{"attributes":{"POSITION":24},"mode":4,"indices":25,"material":8}]}],"materials":[{"name":"effect_Part__Feature008","pbrMetallicRoughness":{"baseColorFactor":[0.800000011920929,0.800000011920929,0.800000011920929,1],"metallicFactor":0,"roughnessFactor":1},"alphaMode":"OPAQUE"},{"name":"effect_Part__Feature010","pbrMetallicRoughness":{"baseColorFactor":[0.800000011920929,0.800000011920929,0.800000011920929,1],"metallicFactor":0,"roughnessFactor":1},"alphaMode":"OPAQUE"},{"name":"effect_Part__Feature004","pbrMetallicRoughness":{"baseColorFactor":[0.800000011920929,0.800000011920929,0.800000011920929,1],"metallicFactor":0,"roughnessFactor":1},"alphaMode":"OPAQUE"},{"name":"effect_Part__Feature005","pbrMetallicRoughness":{"baseColorFactor":[0.800000011920929,0.800000011920929,0.800000011920929,1],"metallicFactor":0,"roughnessFactor":1},"alphaMode":"OPAQUE"},{"name":"effect_Part__Feature006","pbrMetallicRoughness":{"baseColorFactor":[0.800000011920929,0.800000011920929,0.800000011920929,1],"metallicFactor":0,"roughnessFactor":1},"alphaMode":"OPAQUE"},{"name":"effect_Part__Feature013","pbrMetallicRoughness":{"baseColorFactor":[0.800000011920929,0.800000011920929,0.800000011920929,1],"metallicFactor":0,"roughnessFactor":1},"alphaMode":"OPAQUE"},{"name":"effect_Part__Feature007","pbrMetallicRoughness":{"baseColorFactor":[0.800000011920929,0.800000011920929,0.800000011920929,1],"metallicFactor":0,"roughnessFactor":1},"alphaMode":"OPAQUE"},{"name":"effect_Part__Feature003","pbrMetallicRoughness":{"baseColorFactor":[0.800000011920929,0.800000011920929,0.800000011920929,1],"metallicFactor":0,"roughnessFactor":1},"alphaMode":"OPAQUE"},{"name":"effect_Part__Feature","pbrMetallicRoughness":{"baseColorFactor":[0.800000011920929,0.800000011920929,0.800000011920929,1],"metallicFactor":0,"roughnessFactor":1},"alphaMode":"OPAQUE"}],"accessors":[{"bufferView":0,"byteOffset":0,"count":508,"componentType":5126,"type":"VEC3","min":[0.41023871302604675,-0.137725368142128,0.0019999751821160316],"max":[0.44579869508743286,-0.13518537580966949,0.013539972715079784]},{"bufferView":1,"byteOffset":0,"count":3036,"componentType":5125,"type":"SCALAR"},{"bufferView":2,"byteOffset":0,"count":508,"componentType":5126,"type":"VEC3","min":[0.41023871302604675,-0.12248537689447403,0.0019999779760837555],"max":[0.44579869508743286,-0.11994537711143494,0.013539975509047508]},{"bufferView":3,"byteOffset":0,"count":3036,"componentType":5125,"type":"SCALAR"},{"bufferView":4,"byteOffset":0,"count":730,"componentType":5126,"type":"VEC3","min":[0.12794210016727448,-0.29692015051841736,-5.3081290474210618E-8],"max":[0.34418359398841858,-0.11528627574443817,0.0029999788384884596]},{"bufferView":5,"byteOffset":0,"count":4368,"componentType":5125,"type":"SCALAR"},{"bufferView":6,"byteOffset":0,"count":1410,"componentType":5126,"type":"VEC3","min":[0.11833590269088745,-0.3063233494758606,0.0029999448452144861],"max":[0.3532957136631012,-0.10609567910432816,0.0034999803174287081]},{"bufferView":7,"byteOffset":0,"count":8712,"componentType":5125,"type":"SCALAR"},{"bufferView":8,"byteOffset":0,"count":1654,"componentType":5126,"type":"VEC3","min":[0.11833590269088745,-0.3063233494758606,0.0034999444615095854],"max":[0.3532957136631012,-0.10609567910432816,0.003999980166554451]},{"bufferView":9,"byteOffset":0,"count":10188,"componentType":5125,"type":"SCALAR"},{"bufferView":10,"byteOffset":0,"count":18221,"componentType":5126,"type":"VEC3","min":[0.41023871302604675,-0.137725368142128,0.010539974085986614],"max":[0.44629871845245361,-0.11994537711143494,0.015179974026978016]},{"bufferView":11,"byteOffset":0,"count":109758,"componentType":5125,"type":"SCALAR"},{"bufferView":12,"byteOffset":0,"count":7226,"componentType":5126,"type":"VEC3","min":[0.365408718585968,-0.15283536911010742,-2.7239691391400811E-8],"max":[0.44998869299888611,-0.10229538381099701,0.0079999798908829689]},{"bufferView":13,"byteOffset":0,"count":43344,"componentType":5125,"type":"SCALAR"},{"bufferView":14,"byteOffset":0,"count":1066,"componentType":5126,"type":"VEC3","min":[0.1145360991358757,-0.31012293696403503,-0.0090000545606017113],"max":[0.35708820819854736,-0.10229538381099701,0.0029999811667948961]},{"bufferView":15,"byteOffset":0,"count":6552,"componentType":5125,"type":"SCALAR"},{"bufferView":16,"byteOffset":0,"count":654,"componentType":5126,"type":"VEC3","min":[0.14429490268230438,-0.28036424517631531,-0.0090000489726662636],"max":[0.28510230779647827,-0.13205356895923615,0.0029999760445207357]},{"bufferView":17,"byteOffset":0,"count":4020,"componentType":5125,"type":"SCALAR"},{"bufferView":18,"byteOffset":0,"count":8689,"componentType":5126,"type":"VEC3","min":[0.003249249653890729,-0.0075418646447360516,-6.8671572080347687E-5],"max":[0.00847648549824953,-0.0029298618901520967,7.7277902164496481E-5]},{"bufferView":19,"byteOffset":0,"count":53310,"componentType":5125,"type":"SCALAR"},{"bufferView":20,"byteOffset":0,"count":9579,"componentType":5126,"type":"VEC3","min":[0.003249249653890729,-0.0075418646447360516,-6.8671572080347687E-5],"max":[0.0087414402514696121,-0.0029298618901520967,7.7277902164496481E-5]},{"bufferView":21,"byteOffset":0,"count":58710,"componentType":5125,"type":"SCALAR"},{"bufferView":22,"byteOffset":0,"count":7854,"componentType":5126,"type":"VEC3","min":[0.0033345737028867006,-0.0074587855488061905,-5.74446858081501E-5],"max":[0.0076703955419361591,-0.0029343524947762489,7.7277902164496481E-5]},{"bufferView":23,"byteOffset":0,"count":48102,"componentType":5125,"type":"SCALAR"},{"bufferView":24,"byteOffset":0,"count":13455,"componentType":5126,"type":"VEC3","min":[0.0031998511403799057,-0.0076002446003258228,-0.00022809328220319003],"max":[0.0088043101131916046,-0.0028714817017316818,7.5032512540929019E-5]},{"bufferView":25,"byteOffset":0,"count":81156,"componentType":5125,"type":"SCALAR"}],"bufferViews":[{"buffer":0,"byteOffset":0,"byteLength":6096,"byteStride":12,"target":34962},{"buffer":0,"byteOffset":6096,"byteLength":12144,"target":34963},{"buffer":0,"byteOffset":18240,"byteLength":6096,"byteStride":12,"target":34962},{"buffer":0,"byteOffset":24336,"byteLength":12144,"target":34963},{"buffer":0,"byteOffset":36480,"byteLength":8760,"byteStride":12,"target":34962},{"buffer":0,"byteOffset":45240,"byteLength":17472,"target":34963},{"buffer":0,"byteOffset":62712,"byteLength":16920,"byteStride":12,"target":34962},{"buffer":0,"byteOffset":79632,"byteLength":34848,"target":34963},{"buffer":0,"byteOffset":114480,"byteLength":19848,"byteStride":12,"target":34962},{"buffer":0,"byteOffset":134328,"byteLength":40752,"target":34963},{"buffer":0,"byteOffset":175080,"byteLength":218652,"byteStride":12,"target":34962},{"buffer":0,"byteOffset":393732,"byteLength":439032,"target":34963},{"buffer":0,"byteOffset":832764,"byteLength":86712,"byteStride":12,"target":34962},{"buffer":0,"byteOffset":919476,"byteLength":173376,"target":34963},{"buffer":0,"byteOffset":1092852,"byteLength":12792,"byteStride":12,"target":34962},{"buffer":0,"byteOffset":1105644,"byteLength":26208,"target":34963},{"buffer":0,"byteOffset":1131852,"byteLength":7848,"byteStride":12,"target":34962},{"buffer":0,"byteOffset":1139700,"byteLength":16080,"target":34963},{"buffer":0,"byteOffset":1155780,"byteLength":104268,"byteStride":12,"target":34962},{"buffer":0,"byteOffset":1260048,"byteLength":213240,"target":34963},{"buffer":0,"byteOffset":1473288,"byteLength":114948,"byteStride":12,"target":34962},{"buffer":0,"byteOffset":1588236,"byteLength":234840,"target":34963},{"buffer":0,"byteOffset":1823076,"byteLength":94248,"byteStride":12,"target":34962},{"buffer":0,"byteOffset":1917324,"byteLength":192408,"target":34963},{"buffer":0,"byteOffset":2109732,"byteLength":161460,"byteStride":12,"target":34962},{"buffer":0,"byteOffset":2271192,"byteLength":324624,"target":34963}],"buffers":[{"byteLength":2595816,"uri":"Montessorizer3D.bin"}]}