{"asset":{"generator":"3D Builder","version":"2.0"},"scene":0,"scenes":[{"nodes":[0]}],"nodes":[{"mesh":0,"matrix":[0.39370077848434448,0,0,0,0,-4.693279009870821E-8,-0.39370071887969971,0,0,0.39370071887969971,-4.693279009870821E-8,0,0.1549573689699173,0.0042426013387739658,-0.3288438618183136,1]}],"meshes":[{"primitives":[{"attributes":{"POSITION":0,"COLOR_0":1},"mode":4,"indices":2}]}],"accessors":[{"bufferView":0,"byteOffset":0,"count":11474,"componentType":5126,"type":"VEC3","min":[-0.069633722305297852,-0.069849468767642975,-0.010776308365166187],"max":[0.069609083235263824,0.069799736142158508,0.29905292391777039]},{"bufferView":1,"byteOffset":0,"count":11474,"componentType":5121,"type":"VEC4","normalized":true},{"bufferView":2,"byteOffset":0,"count":68898,"componentType":5125,"type":"SCALAR"}],"bufferViews":[{"buffer":0,"byteOffset":0,"byteLength":137688,"byteStride":12,"target":34962},{"buffer":0,"byteOffset":137688,"byteLength":45896,"byteStride":4,"target":34962},{"buffer":0,"byteOffset":183584,"byteLength":275592,"target":34963}],"buffers":[{"byteLength":459176,"uri":"CHC_M3x10mm.bin"}]}