{
    "asset" : {
        "generator" : "Khronos glTF Blender I/O v1.4.40",
        "version" : "2.0"
    },
    "scene" : 0,
    "scenes" : [
        {
            "name" : "Scene",
            "nodes" : [
                0,
                1,
                2,
                3,
                4,
                5,
                6,
                7
            ]
        }
    ],
    "nodes" : [
        {
            "name" : "Light.001",
            "rotation" : [
                0.16907575726509094,
                0.7558803558349609,
                -0.27217137813568115,
                0.570947527885437
            ],
            "translation" : [
                -204.37210083007812,
                5.903861999511719,
                -187.71890258789062
            ]
        },
        {
            "name" : "Camera.001",
            "rotation" : [
                0.483536034822464,
                0.33687159419059753,
                -0.20870360732078552,
                0.7804827094078064
            ],
            "translation" : [
                -201.08946228027344,
                4.958309173583984,
                -179.78765869140625
            ]
        },
        {
            "name" : "Light",
            "rotation" : [
                0.16907575726509094,
                0.7558803558349609,
                -0.27217137813568115,
                0.570947527885437
            ],
            "translation" : [
                -204.37210083007812,
                5.903861999511719,
                -187.71890258789062
            ]
        },
        {
            "name" : "Camera",
            "rotation" : [
                0.483536034822464,
                0.33687159419059753,
                -0.20870360732078552,
                0.7804827094078064
            ],
            "translation" : [
                -201.08946228027344,
                4.958309173583984,
                -179.78765869140625
            ]
        },
        {
            "mesh" : 0,
            "name" : "A01 SensorsSupport",
            "translation" : [
                -220,
                0,
                -200
            ]
        },
        {
            "mesh" : 1,
            "name" : "A02 Sensor1Copper",
            "translation" : [
                -220,
                0,
                -200
            ]
        },
        {
            "mesh" : 2,
            "name" : "A02 Sensor2Copper",
            "translation" : [
                -220,
                0,
                -200
            ]
        },
        {
            "mesh" : 3,
            "name" : "A02 Sensor3Copper",
            "translation" : [
                -220,
                0,
                -200
            ]
        }
    ],
    "meshes" : [
        {
            "name" : "A01 SensorsSupport.002",
            "primitives" : [
                {
                    "attributes" : {
                        "POSITION" : 0,
                        "NORMAL" : 1
                    },
                    "indices" : 2
                }
            ]
        },
        {
            "name" : "A02 Sensor1Copper.002",
            "primitives" : [
                {
                    "attributes" : {
                        "POSITION" : 3,
                        "NORMAL" : 4
                    },
                    "indices" : 5
                }
            ]
        },
        {
            "name" : "A02 Sensor2Copper.002",
            "primitives" : [
                {
                    "attributes" : {
                        "POSITION" : 6,
                        "NORMAL" : 7
                    },
                    "indices" : 8
                }
            ]
        },
        {
            "name" : "A02 Sensor3Copper.002",
            "primitives" : [
                {
                    "attributes" : {
                        "POSITION" : 9,
                        "NORMAL" : 10
                    },
                    "indices" : 11
                }
            ]
        }
    ],
    "accessors" : [
        {
            "bufferView" : 0,
            "componentType" : 5126,
            "count" : 2915,
            "max" : [
                344.1518859863281,
                3,
                296.926513671875
            ],
            "min" : [
                127.94519805908203,
                0,
                115.28959655761719
            ],
            "type" : "VEC3"
        },
        {
            "bufferView" : 1,
            "componentType" : 5126,
            "count" : 2915,
            "type" : "VEC3"
        },
        {
            "bufferView" : 2,
            "componentType" : 5123,
            "count" : 3630,
            "type" : "SCALAR"
        },
        {
            "bufferView" : 3,
            "componentType" : 5126,
            "count" : 1339,
            "max" : [
                333.79339599609375,
                3.0999999046325684,
                296.926513671875
            ],
            "min" : [
                127.9478988647461,
                -0.10000000149011612,
                115.29209899902344
            ],
            "type" : "VEC3"
        },
        {
            "bufferView" : 4,
            "componentType" : 5126,
            "count" : 1339,
            "type" : "VEC3"
        },
        {
            "bufferView" : 5,
            "componentType" : 5123,
            "count" : 1644,
            "type" : "SCALAR"
        },
        {
            "bufferView" : 6,
            "componentType" : 5126,
            "count" : 1580,
            "max" : [
                344.1518859863281,
                3.0999999046325684,
                293.5791931152344
            ],
            "min" : [
                131.28309631347656,
                -0.10000000149011612,
                115.45379638671875
            ],
            "type" : "VEC3"
        },
        {
            "bufferView" : 7,
            "componentType" : 5126,
            "count" : 1580,
            "type" : "VEC3"
        },
        {
            "bufferView" : 8,
            "componentType" : 5123,
            "count" : 1956,
            "type" : "SCALAR"
        },
        {
            "bufferView" : 9,
            "componentType" : 5126,
            "count" : 1020,
            "max" : [
                314.9479064941406,
                3.0999999046325684,
                296.9158020019531
            ],
            "min" : [
                127.94650268554688,
                -0.10000000149011612,
                115.29070281982422
            ],
            "type" : "VEC3"
        },
        {
            "bufferView" : 10,
            "componentType" : 5126,
            "count" : 1020,
            "type" : "VEC3"
        },
        {
            "bufferView" : 11,
            "componentType" : 5123,
            "count" : 1164,
            "type" : "SCALAR"
        }
    ],
    "bufferViews" : [
        {
            "buffer" : 0,
            "byteLength" : 34980,
            "byteOffset" : 0
        },
        {
            "buffer" : 0,
            "byteLength" : 34980,
            "byteOffset" : 34980
        },
        {
            "buffer" : 0,
            "byteLength" : 7260,
            "byteOffset" : 69960
        },
        {
            "buffer" : 0,
            "byteLength" : 16068,
            "byteOffset" : 77220
        },
        {
            "buffer" : 0,
            "byteLength" : 16068,
            "byteOffset" : 93288
        },
        {
            "buffer" : 0,
            "byteLength" : 3288,
            "byteOffset" : 109356
        },
        {
            "buffer" : 0,
            "byteLength" : 18960,
            "byteOffset" : 112644
        },
        {
            "buffer" : 0,
            "byteLength" : 18960,
            "byteOffset" : 131604
        },
        {
            "buffer" : 0,
            "byteLength" : 3912,
            "byteOffset" : 150564
        },
        {
            "buffer" : 0,
            "byteLength" : 12240,
            "byteOffset" : 154476
        },
        {
            "buffer" : 0,
            "byteLength" : 12240,
            "byteOffset" : 166716
        },
        {
            "buffer" : 0,
            "byteLength" : 2328,
            "byteOffset" : 178956
        }
    ],
    "buffers" : [
        {
            "byteLength" : 181284,
            "uri" : "data:application/octet-stream;base64,"
        }
    ]
}
