<?xml version="1.0" encoding="utf-8"?>
<!-- Generator: Adobe Illustrator 24.1.3, SVG Export Plug-In . SVG Version: 6.00 Build 0)  -->
<svg version="1.1" id="Calque_1" xmlns="http://www.w3.org/2000/svg" xmlns:xlink="http://www.w3.org/1999/xlink" x="0px" y="0px"
	 viewBox="0 0 500 500" style="enable-background:new 0 0 500 500;" xml:space="preserve">
<g>
	<g>
		<path style="fill-rule:evenodd;clip-rule:evenodd;fill:#FEFEFE;" d="M333.1,59.22c1.18-1.75,2.4-3.46,3.51-5.25
			c0.55-0.89,1.05-0.85,1.86-0.38c2.9,1.69,5.82,3.35,8.76,4.97c0.75,0.42,0.91,0.84,0.7,1.7c-2.11,8.74-3.99,17.55-6.89,26.09
			c-0.03,0.1,0.01,0.23,0.03,0.71c0.66-0.65,1.17-1.12,1.65-1.63c5.83-6.21,12.11-11.94,18.37-17.7c0.61-0.56,1.04-0.71,1.82-0.25
			c2.83,1.69,5.71,3.32,8.6,4.9c0.82,0.45,1.05,0.81,0.59,1.73c-5.79,11.54-11.55,23.1-17.28,34.67c-0.42,0.85-0.85,1.15-1.69,0.66
			c-2.46-0.6-4.42-2.16-6.52-3.44c-0.75-0.46-0.61-1.23-0.25-1.9c3.22-6.05,6.27-12.19,9.5-18.23c1.3-2.42,2.49-4.91,3.93-7.12
			c-4,4.43-8.54,8.46-12.99,12.59c-2.63,2.45-5.28,4.9-7.89,7.38c-1.07,1.02-2.02,1.3-3.27,0.46c-1.13-0.76-2.35-1.37-3.53-2.04
			c-1.22-0.7-1.56-1.64-1.25-2.97c0.62-2.65,1.41-5.25,2.07-7.89c1.58-6.29,3.04-12.62,5.16-18.72
			c-4.05,6.66-8.32,13.22-12.49,19.85c-0.66,1.05-1.3,2.11-1.98,3.15c-1.04,1.6-1.36,1.68-3,0.81c-0.82-0.44-1.76-0.74-2.24-1.65
			c-0.85-0.52-1.66-1.11-2.55-1.55c-1-0.49-1.01-0.91-0.39-1.84c5.61-8.45,11.15-16.94,16.7-25.42
			C332.47,60.35,332.77,59.78,333.1,59.22z"/>
		<path style="fill-rule:evenodd;clip-rule:evenodd;fill:#FEFEFE;" d="M56.03,186.75c8.86,2.81,17.49,6.25,26.21,9.43
			c0.73,0.27,1.2,0.53,0.78,1.52c-0.84,1.94-1.53,3.95-2.23,5.94c-0.29,0.84-0.63,1.06-1.55,0.71
			c-12.16-4.58-24.33-9.12-36.51-13.64c-0.81-0.3-0.91-0.64-0.6-1.41c1.08-2.73,2.14-5.47,3.11-8.25c0.32-0.91,0.88-1.13,1.69-1.24
			c9.51-1.28,18.91-3.45,28.55-3.68c0.51-0.01,1.02-0.19,1.94-0.37c-8.87-2.41-16.99-5.67-25.2-8.71c-1.17-0.44-1.59-0.78-1-2.06
			c0.78-1.7,1.39-3.5,1.97-5.28c0.35-1.08,0.76-1.32,1.9-0.89c9.89,3.76,19.81,7.44,29.72,11.15c2.09,0.78,4.17,1.62,6.28,2.35
			c0.89,0.31,1.24,0.64,0.84,1.64c-0.95,2.34-1.79,4.73-2.67,7.09c-0.21,0.56-0.45,1.05-1.18,1.14c-10.57,1.35-21.05,3.51-31.73,4
			C56.22,186.37,55.54,186.25,56.03,186.75z"/>
		<path style="fill-rule:evenodd;clip-rule:evenodd;fill:#FEFEFE;" d="M308.61,86.15c-1.37-0.37-2.79-0.73-4.2-1.13
			c-6.34-1.77-12.68-3.56-19.01-5.33c-0.96-0.27-1.56-0.46-1.17-1.84c3.53-12.32,6.95-24.67,10.38-37.01
			c0.25-0.9,0.55-1.26,1.59-0.96c7.4,2.12,14.82,4.19,22.24,6.23c0.8,0.22,1.09,0.55,0.84,1.37c-0.55,1.8-1.1,3.6-1.55,5.42
			c-0.21,0.85-0.49,0.95-1.32,0.71c-4.35-1.26-8.73-2.4-13.08-3.67c-1.04-0.3-1.45-0.13-1.69,0.92c-0.45,1.89-0.92,3.78-1.56,5.61
			c-0.36,1.04-0.02,1.3,0.88,1.55c3.97,1.08,7.91,2.27,11.89,3.29c1.26,0.32,1.43,0.8,1.05,1.93c-0.51,1.5-0.91,3.04-1.28,4.58
			c-0.26,1.09-0.72,1.31-1.82,0.98c-3.88-1.17-7.82-2.15-11.7-3.33c-1.15-0.35-1.55-0.17-1.82,1c-0.5,2.17-1.1,4.33-1.81,6.45
			c-0.38,1.13-0.13,1.52,0.99,1.82c4.37,1.16,8.7,2.5,13.09,3.59c1.56,0.39,1.8,1,1.31,2.38c-0.53,1.49-0.91,3.04-1.34,4.57
			C309.38,85.75,309.35,86.25,308.61,86.15z"/>
		<path style="fill-rule:evenodd;clip-rule:evenodd;fill:#FEFEFE;" d="M113.72,92.85c-0.41,0.22-0.85,0.35-1.14,0.62
			c-3.18,3.07-6.31,6.2-9.54,9.23c-0.91,0.86-0.72,1.36,0.05,2.09c1.37,1.3,2.72,2.63,3.98,4.04c0.7,0.79,1.1,0.69,1.79,0
			c2.92-2.93,5.92-5.76,8.82-8.71c0.82-0.83,1.3-0.86,2.07,0.01c1.09,1.24,2.25,2.43,3.48,3.53c0.84,0.75,0.77,1.19-0.02,1.94
			c-3.04,2.89-5.98,5.87-9.02,8.76c-0.65,0.62-0.82,0.94-0.11,1.62c1.74,1.68,3.47,3.38,5.05,5.21c0.84,0.97,1.23,0.59,1.9-0.08
			c3.22-3.21,6.51-6.34,9.7-9.58c0.96-0.97,1.64-1.32,2.56-0.03c0.4,0.57,0.99,1.01,1.49,1.51c2.82,2.82,2.8,2.8-0.01,5.52
			c-5,4.84-9.99,9.71-14.93,14.61c-0.83,0.82-1.25,0.98-2.18,0.03c-8.88-9.15-17.81-18.24-26.77-27.31
			c-0.8-0.81-0.86-1.23-0.01-2.05c5.48-5.28,10.92-10.61,16.33-15.97c0.71-0.7,1.09-0.76,1.78,0.04c1.2,1.38,2.55,2.63,3.83,3.93
			C113.02,92.03,113.2,92.26,113.72,92.85z"/>
		<path style="fill-rule:evenodd;clip-rule:evenodd;fill:#FEFEFE;" d="M96.89,147.45c-4.24-4.56-8.18-9.08-11.96-13.75
			c-2.82-3.48-5.7-6.92-8.56-10.38c-0.38-0.46-0.77-0.87-0.3-1.55c1.73-2.51,3.41-5.05,5.17-7.68c6.54,8.53,12.96,16.9,19.38,25.28
			c2.12,2.76,4.19,5.56,6.37,8.27c0.61,0.76,0.55,1.24,0.04,1.97c-1.62,2.32-3.22,4.65-4.72,7.05c-0.57,0.91-1.15,0.93-2.03,0.68
			c-12.98-3.78-25.96-7.55-38.95-11.28c-1.2-0.34-1.17-0.72-0.5-1.63c1.45-2,2.85-4.05,4.14-6.17c0.63-1.04,1.22-1.08,2.29-0.72
			c9.64,3.23,19.44,5.98,28.89,9.77C96.3,147.38,96.47,147.38,96.89,147.45z"/>
		<path style="fill-rule:evenodd;clip-rule:evenodd;fill:#FEFEFE;" d="M123.36,80.62c0.08-2.59,1.58-5.61,4.01-8.15
			c3.55-3.71,7.88-6.09,12.89-7.29c0.95-0.23,1.24,0.03,1.49,0.86c0.54,1.8,1.12,3.59,1.77,5.35c0.34,0.94,0.06,1.16-0.87,1.33
			c-2.76,0.48-5.28,1.61-7.56,3.26c-0.91,0.66-1.72,1.43-2.27,2.44c-1.39,2.56,0.04,5.15,2.96,5.26c2.63,0.1,5.12-0.73,7.66-1.23
			c3.22-0.63,6.45-0.97,9.57,0.37c7.57,3.24,9.37,12.78,3.62,19.44c-4.02,4.66-9.16,7.49-15.16,8.84c-1.02,0.23-1.5,0.09-1.82-0.93
			c-0.57-1.79-1.2-3.57-1.89-5.31c-0.38-0.95-0.14-1.17,0.83-1.33c3.58-0.62,6.92-1.86,9.83-4.13c0.66-0.52,1.22-1.11,1.7-1.79
			c0.91-1.29,1.23-2.64,0.52-4.15c-0.75-1.56-2.05-2.21-3.69-2.31c-1.91-0.11-3.74,0.43-5.57,0.84c-2.94,0.65-5.87,1.23-8.92,0.64
			C126.99,91.56,123.34,87.18,123.36,80.62z"/>
		<path style="fill-rule:evenodd;clip-rule:evenodd;fill:#FEFEFE;" d="M264.06,77.32c-4.81,0-8.83-0.97-12.7-2.7
			c-1.22-0.54-1.77-1.13-1.14-2.53c0.62-1.39,1.07-2.87,1.47-4.34c0.35-1.31,0.73-1.66,2.12-0.9c3.29,1.8,6.84,2.88,10.66,2.65
			c3.2-0.19,4.93-2.03,4.64-4.77c-0.15-1.45-1.11-2.31-2.16-3.08c-1.43-1.05-3.06-1.75-4.66-2.5c-2.52-1.18-4.92-2.57-6.8-4.67
			c-4.72-5.27-3.58-13.18,2.46-16.94c4.55-2.83,9.5-2.79,14.54-1.87c2.09,0.38,4.09,1.08,6.02,1.97c0.81,0.37,1,0.81,0.65,1.65
			c-0.69,1.68-1.37,3.38-1.9,5.12c-0.32,1.07-0.73,1.09-1.6,0.62c-2.64-1.41-5.47-2.12-8.47-2.15c-1.07-0.01-2.11,0.18-3.06,0.69
			c-2.21,1.17-2.63,3.66-0.91,5.47c1.03,1.08,2.36,1.75,3.66,2.43c2.34,1.23,4.79,2.25,6.94,3.84c3.83,2.84,5.71,6.52,4.94,11.32
			c-0.84,5.22-4.08,8.33-8.96,9.88C267.77,77.16,265.65,77.43,264.06,77.32z"/>
		<path style="fill-rule:evenodd;clip-rule:evenodd;fill:#FEFEFE;" d="M225.54,78.08c-2.67,0.03-5.29-0.27-7.85-1.06
			c-0.69-0.21-1.19-0.41-1.04-1.3c0.32-1.91,0.62-3.84,0.85-5.76c0.12-0.98,0.32-1.24,1.42-0.89c3.51,1.11,7.11,1.64,10.79,0.84
			c0.87-0.19,1.71-0.44,2.46-0.91c2.78-1.77,2.75-5.19-0.06-6.92c-1.88-1.16-4.04-1.57-6.13-2.13c-1.99-0.53-3.94-1.18-5.74-2.21
			c-7.63-4.36-8.17-14.36-0.9-19.29c5.86-3.97,12.39-3.98,19.05-2.5c0.7,0.16,0.9,0.54,0.75,1.29c-0.38,1.91-0.68,3.83-0.95,5.75
			c-0.13,0.9-0.46,0.95-1.29,0.71c-3.03-0.89-6.13-1.15-9.25-0.44c-0.81,0.18-1.59,0.46-2.27,0.94c-2.36,1.68-2.28,4.38,0.17,5.93
			c1.72,1.08,3.68,1.52,5.6,2.04c1.87,0.51,3.73,1.05,5.5,1.87c4.46,2.06,7.06,5.47,7.16,10.46c0.1,4.93-2.26,8.57-6.52,10.94
			C233.64,77.43,229.66,78.14,225.54,78.08z"/>
		<path style="fill-rule:evenodd;clip-rule:evenodd;fill:#FEFEFE;" d="M178.02,91.16c-0.87-0.04-0.82-0.82-1.01-1.28
			c-3.83-9.1-7.68-18.2-11.4-27.34c-0.61-1.51-1.1-1.97-2.67-1.19c-2.31,1.14-4.77,2-7.12,3.06c-0.99,0.45-1.37,0.29-1.73-0.77
			c-0.56-1.66-1.3-3.27-2.05-4.87c-0.4-0.86-0.37-1.3,0.62-1.71c9.07-3.74,18.13-7.53,27.18-11.32c0.64-0.27,1-0.39,1.32,0.44
			c0.71,1.87,1.5,3.7,2.33,5.52c0.45,1-0.19,1.22-0.87,1.5c-2.55,1.05-5.07,2.2-7.67,3.14c-1.33,0.48-1.32,1.05-0.84,2.19
			c3.89,9.2,7.7,18.44,11.6,27.63c0.52,1.22,0.37,1.72-0.89,2.17c-2.05,0.73-4.03,1.64-6.04,2.47
			C178.53,90.91,178.26,91.04,178.02,91.16z"/>
		<path style="fill-rule:evenodd;clip-rule:evenodd;fill:#FEFEFE;" d="M210.46,79.42c0.14,0.76-0.13,0.96-0.7,1.1
			c-2.51,0.61-5.01,1.26-7.51,1.93c-1.3,0.35-1-0.82-1.13-1.3c-1.34-5.06-2.6-10.13-3.88-15.2c-1.83-7.23-3.63-14.48-5.53-21.69
			c-0.33-1.27-0.12-1.76,1.16-2.02c2.13-0.43,4.26-0.91,6.33-1.57c1.12-0.36,1.45-0.01,1.69,0.97c1.65,6.62,3.33,13.22,4.99,19.84
			c1.45,5.76,2.89,11.51,4.34,17.27C210.3,79.02,210.42,79.29,210.46,79.42z"/>
		<path style="fill-rule:evenodd;clip-rule:evenodd;fill:#FEFEFE;" d="M79.15,213.28c-0.54,2.81-1.05,5.23-1.46,7.66
			c-0.14,0.85-0.45,1.04-1.28,0.88c-12.59-2.4-25.17-4.8-37.78-7.11c-1.51-0.28-1.61-0.91-1.33-2.13c0.45-2.01,0.93-4.02,1.17-6.06
			c0.16-1.37,0.76-1.42,1.84-1.21c7.1,1.36,14.21,2.69,21.31,4.03c5.43,1.02,10.86,2.04,16.29,3.06
			C78.59,212.54,79.47,212.51,79.15,213.28z"/>
		<path style="fill-rule:evenodd;clip-rule:evenodd;fill:#5FC6E2;" d="M56.03,186.75c-0.3-0.11-0.68-0.08-0.84-0.47
			c0.38-0.26,0.76-0.12,1.14-0.09C56.23,186.38,56.13,186.57,56.03,186.75z"/>
		<path style="fill-rule:evenodd;clip-rule:evenodd;fill:#FEFEFE;" d="M297.73,418.77c2.48,2.25,4.97,4.49,7.45,6.74
			c0.89,0.12,1.41,0.84,2.01,1.37c4.25,3.78,8.28,7.79,11.93,11.96c-2.44-5.45-4.14-11.34-6.1-17.14c-0.13-0.39-0.26-0.79-0.06-1.2
			c-0.56-1.78-1.06-3.59-1.72-5.33c-0.44-1.16-0.41-1.77,1-2.11c1.77-0.42,3.48-1.1,5.19-1.73c1.12-0.41,1.77-0.16,2.05,1.04
			c0.12,0.5,0.39,0.96,0.59,1.44c0.89,0.8,0.97,1.98,1.33,3.01c0.75,2.16,1.48,4.33,2.19,6.51c0.66,2.75,1.75,5.37,2.57,8.07
			c0.22,0.72,0.64,1.41,0.34,2.21c1.6,5.02,3.18,10.04,4.83,15.04c0.36,1.1,0.27,1.64-0.96,1.97c-2.03,0.54-4.07,1.14-6.01,1.93
			c-1.38,0.56-2.29,0.39-3.37-0.66c-2.82-2.74-5.77-5.35-8.66-8.01c-1.25-0.39-2.01-1.44-2.9-2.25c-3.67-3.32-7.15-6.83-10.35-10.35
			c1.62,4.93,3.67,9.94,5.13,15.15c0.16,0.56,0.42,1.11,0.29,1.72c0.86,2.81,1.66,5.63,2.6,8.41c0.36,1.07,0.28,1.57-0.9,1.89
			c-1.87,0.5-3.74,1.07-5.53,1.81c-1.22,0.51-1.51-0.05-1.81-0.99c-0.73-2.29-1.5-4.58-2.26-6.86c-0.79-0.55-0.91-1.45-1.2-2.26
			c-0.73-2.02-1.19-4.13-1.94-6.15c-0.94-3.34-2.43-6.49-3.3-9.85c-0.7-3.22-2.18-6.18-3.14-9.31c-0.89-3.4-1.88-3.5,2.55-4.88
			c2.02-0.63,4.01-1.37,6.03-2C296.5,417.68,297.35,417.61,297.73,418.77z"/>
		<path style="fill-rule:evenodd;clip-rule:evenodd;fill:#FEFEFE;" d="M336.01,401.78c1.31,2.96,2.91,5.76,4.61,8.5
			c0.84,0.46,1.13,1.34,1.49,2.1c1.25,2.62,3.13,4.92,3.84,7.81c2.87,5.4,5.69,10.82,8.66,16.17c0.72,1.31,0.43,1.75-0.77,2.33
			c-1.96,0.94-3.85,2.03-5.74,3.1c-0.67,0.38-1.05,0.5-1.51-0.35c-2.8-5.22-5.67-10.41-8.51-15.61c-0.6-0.32-0.95-0.88-1.22-1.45
			c-1.31-2.74-2.99-5.28-4.4-7.96c-1.09-2.42-2.47-4.69-3.68-7.04c-0.32-0.62-0.75-1.22-0.64-1.98c-0.51-0.67-0.86-1.46,0.1-1.9
			C330.85,404.32,333.28,402.74,336.01,401.78z"/>
		<path style="fill-rule:evenodd;clip-rule:evenodd;fill:#FEFEFE;" d="M454.47,220.84c-1.36-0.15-1.86-0.68-1.44-2.19
			c0.73-2.66,0.38-5.37-0.34-8.01c-0.2-0.72-0.51-1.45-0.92-2.08c-0.8-1.26-1.89-2.04-3.51-1.9c-1.57,0.14-2.42,1.14-2.96,2.43
			c-1.05,2.51-1.23,5.24-1.82,7.86c-0.46,2.07-1.08,4.08-2.17,5.92c-1.7,2.84-4.23,4.48-7.42,5.18c-1.35,1.04-2.87,0.87-4.37,0.55
			c-6.14-1.29-9.44-5.5-11.3-11.13c-0.31-0.94-0.52-1.92-0.73-2.9c-0.57-3.15-0.59-6.34-0.31-9.5c0.3-3.25,1.04-3.74,4.21-3.21
			c0.41,0.07,0.82,0.1,1.22,0.1c4.22,0.04,4.27,0.05,3.53,4.18c-0.48,2.68-0.24,5.28,0.35,7.89c0.16,0.69,0.39,1.36,0.76,1.97
			c0.81,1.33,1.87,2.33,3.55,2.21c1.68-0.12,2.62-1.24,3.2-2.68c0.69-1.71,0.91-3.53,1.24-5.33c0.72-4,1.87-7.81,5.01-10.69
			c1.24-1.13,2.6-2.01,4.37-1.97c4.08-0.72,7.79-0.04,10.93,2.88c1.7,1.59,2.78,3.59,3.87,5.6c1,3.48,1.93,6.98,1.72,10.65
			c-0.06,1.17-0.08,2.37-0.38,3.49c-0.54,2.03-2.24,0.85-3.36,0.88C456.47,221.06,455.46,220.81,454.47,220.84z"/>
		<path style="fill-rule:evenodd;clip-rule:evenodd;fill:#FEFEFE;" d="M387.8,85.48c5.29,5.03,10.55,10.09,15.87,15.09
			c2.36,2.23,2.44,2.21,0.11,4.48c-1.07,1.05-1.89,3.02-3.25,2.92c-1.17-0.09-2.23-1.74-3.3-2.74c-2.49-2.34-4.98-4.68-7.42-7.08
			c-0.61-0.6-0.94-0.64-1.52,0c-1.34,1.49-2.69,2.98-4.15,4.35c-0.84,0.79-0.69,1.23,0.06,1.93c2.98,2.77,5.84,5.66,8.89,8.35
			c1.1,0.97,0.93,1.48,0.01,2.29c-0.52,0.46-0.94,1.04-1.4,1.57c-0.15,0.18-0.22,0.42-0.35,0.61c-1.64,2.46-2.56,2.63-4.74,0.68
			c-2.55-2.28-4.83-4.84-7.44-7.07c-1.07-0.91-1.68-1.03-2.51,0.18c-0.87,1.27-2.09,2.24-3.17,3.33c-1.54,1.58-1.58,1.62-0.06,3.08
			c3.06,2.94,6.2,5.81,9.22,8.79c1.36,1.34,1.44,1.58,0.08,2.98c-1.15,1.19-2.33,2.34-3.51,3.51c-0.76,0.75-1.51,0.91-2.27,0.06
			c-0.77-0.86-1.89-1.45-2.21-2.68c-4.42-4.23-8.83-8.46-13.26-12.69c-2.4-2.29-2.36-2.25-0.12-4.61
			c8.23-8.66,16.43-17.36,24.66-26.03C386.53,86.25,386.87,85.45,387.8,85.48z"/>
		<path style="fill-rule:evenodd;clip-rule:evenodd;fill:#FEFEFE;" d="M165.19,407.12c0.9-1.02,0.63-3.15,1.93-3.35
			c1.09-0.17,2.38,1.03,3.58,1.62c0.15,0.07,0.32,0.12,0.48,0.17c2.88,1.73,2.91,1.75,1.13,4.75c-2,3.36-4.09,6.68-6.08,10.05
			c-0.49,0.84-0.91,1.04-1.81,0.57c-1.26-0.66-3.08-0.84-3.63-2.09c-0.52-1.19,0.75-2.52,1.21-3.78
			C163,412.39,164.12,409.76,165.19,407.12z"/>
		<path style="fill-rule:evenodd;clip-rule:evenodd;fill:#FEFEFE;" d="M388.46,144.5c-0.6,0.35-1.07,0.48-1.56-0.28
			c-1.17-1.83-2.4-3.62-3.67-5.38c-0.57-0.79-0.35-1.16,0.38-1.66c2.52-1.7,5-3.48,7.49-5.23c6.33-4.28,12.66-8.55,18.98-12.84
			c1.84-1.25,3.64-2.56,5.47-3.84c0.67-0.61,1.2-0.51,1.71,0.25c1.66,2.5,3.34,4.99,5.06,7.45c0.36,0.51,0.43,0.91,0.16,1.44
			c-4.55,8.96-8.49,18.24-14.05,26.66c-0.19,0.29-0.43,0.56-0.79,1.04c1.35-0.38,2.07-1.33,2.92-2.01
			c6.28-4.99,13.05-9.27,19.6-13.89c0.82-0.58,1.1-0.14,1.5,0.43c1.07,1.54,2.17,3.06,3.26,4.59c0.57,0.96,1.07,1.91-0.35,2.6
			c-0.64,1.13-1.78,1.7-2.79,2.38c-7.74,5.25-15.47,10.52-23.17,15.84c-1.78,1.16-3.55,2.33-5.3,3.54c-1.12,0.77-1.9,0.59-2.66-0.51
			c-1.35-1.94-2.71-3.87-4-5.85c-0.52-0.79-0.74-1.59-0.28-2.5c4.62-9.23,9.09-18.55,14.36-27.35c-6.66,4.92-13.58,9.66-20.55,14.32
			C389.66,144.06,389.19,144.58,388.46,144.5z"/>
		<path style="fill-rule:evenodd;clip-rule:evenodd;fill:#FEFEFE;" d="M415.81,187.91c-0.83,0.28-1.72,0.44-2.46,0.86
			c-1.27,0.72-1.89,0.55-2.38-0.92c-0.7-2.1-1.53-4.18-2.53-6.16c-0.61-1.2,0.04-1.28,0.83-1.59c4.78-1.86,9.56-3.73,14.32-5.63
			c2.28-0.91,4.52-1.9,6.78-2.85c2.81-1.12,5.61-2.23,8.44-3.36c-1.15-2.94-2.2-5.92-3.49-8.79c-0.57-1.26-0.18-1.64,0.89-2.02
			c1.53-0.54,3.05-1.09,4.52-1.75c1.13-0.51,1.66-0.38,2.15,0.91c2.01,5.27,4.17,10.48,6.28,15.71c0.2,0.48,0.46,0.94,0.7,1.41
			c1.21,3.15,2.37,6.33,3.66,9.45c0.43,1.05,0.35,1.52-0.78,1.91c-2.04,0.71-4.02,1.57-6.02,2.36c-0.74-0.31-0.92-1.04-1.18-1.68
			c-0.87-2.13-1.77-4.25-2.55-6.41c-0.48-1.33-1.17-1.52-2.42-1.01c-4.42,1.81-8.86,3.57-13.29,5.36c-3.16,1.22-6.29,2.51-9.44,3.76
			C417.18,187.71,416.55,188.08,415.81,187.91z"/>
		<path style="fill-rule:evenodd;clip-rule:evenodd;fill:#FEFEFE;" d="M371.11,384.06c3.18,1.86,5.4,4.46,6.28,8.11
			c0.34,2.69-0.13,5.24-1.51,7.88c4.08-0.59,6.98,1.31,9.79,3.43c2.92,2.19,5.83,4.39,8.87,6.68c-2.3,1.78-4.63,3.55-6.91,5.39
			c-0.66,0.53-1.08,0.12-1.56-0.18c-2.86-1.77-5.44-3.94-8.09-5.99c-3.58-2.77-6.93-2.43-9.98,0.93c-0.63,0.7,0.04,0.94,0.29,1.27
			c2.72,3.55,5.44,7.11,8.24,10.61c0.73,0.91,0.88,1.42-0.19,2.17c-1.83,1.29-3.56,2.71-5.3,4.13c-0.71,0.58-1.09,0.51-1.66-0.25
			c-3.54-4.63-7.14-9.23-10.74-13.82c-0.76-0.96-1.61-1.85-2.42-2.78c-2.39-2.66-4.78-5.31-6.46-8.51
			c-1.01-1.88-2.65-3.26-3.95-4.91c-0.68-0.86-0.76-1.53,0.09-2.27c4.72-4.12,9.12-8.63,14.96-11.28
			C364.25,383.14,367.6,382.67,371.11,384.06z M362.47,392.11c-2.2,0.71-3.78,2.3-5.43,3.79c-0.58,0.53-0.26,0.88,0.08,1.31
			c1.24,1.57,2.46,3.15,3.68,4.73c2.83,3.68,2.83,3.68,6.3,0.45c1.47-1.37,2.42-3,2.6-4.9
			C369.67,393.67,365.95,390.97,362.47,392.11z"/>
		<path style="fill-rule:evenodd;clip-rule:evenodd;fill:#FEFEFE;" d="M111.62,406.59c3.97-4.84,7.47-10.03,11.2-15.04
			c0.86-1.15,5.43-7.63,6.95-9.63c0.73-0.95,1.13-0.71,1.8-0.31c6.99,4.12,13.87,8.37,18.68,15.18c2.62,4.24,3.08,11.34,2.54,12.02
			c-1.27,5.96-4.51,10.71-9.19,14.44c-7.04,5.62-14.57,5.16-22.2,1.31c-5.25-2.65-9.8-6.31-14.13-10.26
			c-0.61-0.55-0.65-0.84-0.09-1.54C108.75,410.76,110.15,408.65,111.62,406.59z M137.3,393.98c-2.94-2.1-2.95-2.11-5.02,0.7
			c-4.4,5.98-8.8,11.96-13.16,17.96c-0.27,0.37-1.15,0.73-0.37,1.42c3.11,2.75,6.56,5,10.84,4.91c6.63-0.14,13.94-8.09,13.93-14.84
			C143.52,400.41,141.35,396.87,137.3,393.98z"/>
		<g>
			<path style="fill-rule:evenodd;clip-rule:evenodd;fill:#FEFEFE;" d="M283.86,459.28c-0.04-0.17-0.07-0.32-0.03-0.51
				c0.6-2.71-0.07-3.49-2.79-3.31c-0.35,0.02-0.7,0.09-1.05,0.13c-4.03,0.43-8.07,0.73-12.1,1.2c-0.76-0.23-0.84-0.91-0.98-1.54
				c-0.22-0.98-0.18-1.99-0.29-2.98c-0.45-4-0.45-4,3.54-4.28c2.87-0.21,5.73-0.59,8.6-0.8c1.98-0.14,2.39-0.76,2.23-2.75
				c-0.13-1.64-0.23-3.28-0.58-4.9c-0.76-1.62-2.2-1.12-3.42-1.01c-3.35,0.31-6.69,0.68-10.05,0.99c-1.09,0.1-1.63-0.21-1.72-1.4
				c-0.1-1.29-0.17-2.6-0.4-3.87c-0.26-1.46,0.35-1.86,1.65-2c3.93-0.44,7.88-0.68,11.8-1.24c2.13-0.3,2.31-0.62,1.96-2.83
				c-0.01-1.57-0.2-3.12-0.48-4.66c-0.31-1.55-1.45-1.4-2.59-1.27c-4.34,0.42-8.68,0.89-13.02,1.28c-2.93,0.27-5.87,0.54-8.79,0.9
				c-1.4,0.17-2.02,0.81-1.87,2.37c0.3,3.11,0.55,6.23,0.93,9.32c0.37,2.95,0.09,6.02,1.41,8.83c0.49,5.09,0.97,10.17,1.46,15.26
				c0.18,1.55,0.36,3.1,0.53,4.65c0.09,0.88,0.33,1.25,1.43,1.13c4.31-0.48,8.64-0.79,12.97-1.16c3.47-0.61,6.98-0.81,10.49-1.12
				c0.94-0.08,1.57-0.19,1.28-1.45C283.78,461.3,283.89,460.27,283.86,459.28z"/>
			<path style="fill-rule:evenodd;clip-rule:evenodd;fill:#FEFEFE;" d="M248.48,425.77c-1.73-0.19-3.47-0.36-5.2-0.58
				c-4.17-0.52-4.17-0.52-5.92,3.2c-0.05,0.1-9.02,20.13-10.56,25.64c-0.03,0.29-0.08,0.29,0,0c0.04-0.38,0.01-0.76-0.04-1.16
				c-0.64-5.75-1.87-11.42-2.92-17.11c-0.14-0.74-1.84-8.25-2.26-11.33c-0.18-1.34-0.8-1.64-1.91-1.75
				c-2.29-0.22-4.58-0.42-6.86-0.74c-1.42-0.2-1.8,0.15-1.47,1.61c1.15,5.21,6.7,32.26,7.3,35.22c0.29,1.32,0.64,2.63,0.86,3.95
				c0.18,1.1,0.75,1.55,1.84,1.64c2.58,0.21,5.15,0.48,7.72,0.79c1.2,0.14,1.86-0.17,2.4-1.39c1.79-4.07,6.63-13.38,6.97-14.14
				c1.75-3.92,3.55-7.81,5.36-11.71c1.56-3.36,3.07-6.74,4.61-10.11C248.67,427.24,249.46,426.48,248.48,425.77z"/>
			<path style="fill-rule:evenodd;clip-rule:evenodd;fill:#FEFEFE;" d="M199.96,419.08c0.04-0.76-0.32-1.15-1.05-1.37
				c-2.29-0.69-4.56-1.51-6.86-2.15c-4.09-1.14-4.13-1.12-6.58,2.47c-2.7,3.95-16.97,24.54-21.09,30.36
				c-0.65,0.92-0.74,1.3,0.5,1.65c2.26,0.64,4.51,1.36,6.71,2.18c1.01,0.38,1.51,0.08,2.02-0.72c1.53-2.38,3.13-4.72,4.65-7.1
				c0.45-0.72,0.85-0.89,1.7-0.59c3,1.04,6.03,1.96,9.05,2.93c0.44,0.14,1,0.24,0.96,0.85c-0.13,2.11-0.15,8.1-0.23,8.97
				c-0.1,1.1,0.18,1.67,1.36,1.98c2.32,0.63,4.59,1.47,6.88,2.24c0.91,0.3,1.53,0.42,1.48-0.95
				C199.37,458.07,199.84,427.35,199.96,419.08z M190.84,438.72c-0.07,1.11-0.48,1.1-1.3,0.82c-2-0.69-4-1.39-6.03-1.97
				c-1.04-0.3-0.96-0.69-0.45-1.45c2.77-4.15,5.61-8.26,8.26-12.59C190.94,428.61,191.17,433.67,190.84,438.72z"/>
			<path style="fill-rule:evenodd;clip-rule:evenodd;fill:#FEFEFE;" d="M369.84,283.66c-0.37-2.6-1.55-4.8-2.99-6.88
				c-2.04-2.95-4.06-5.89-5.79-9.04c-3.24-3.73-5.76-7.95-8.1-12.27c-1.27-2.35-2.35-4.83-1.99-7.64c-0.09-0.65-0.02-1.27,0.14-1.92
				c1.44-6.13,1.1-12.26-0.02-18.4c-0.8-4.43-2.14-8.7-3.43-12.99c-1.33-4.48-2.67-8.96-4-13.44c0.31-1.01-0.45-1.65-0.85-2.4
				c-1.06-1.99-0.88-3.04,0.79-4.48c0.67-0.58,1.4-1.08,2.07-1.66c1.01-0.88,2.27-1.53,2.76-2.91c0.25-0.81,0.5-1.62,0.74-2.42
				c-0.17-1.72-0.56-3.36-1.77-4.69c-1.75-1.92-3.37-1.72-4.6,0.55c-0.61,1.12-0.98,2.41-2.17,3.14c-0.58-0.03-1.16-0.06-1.74-0.09
				c-0.24-1,0.25-1.67,0.97-2.26c0.54-0.43,0.88-0.92,0.59-1.68c-0.29-0.74-0.9-0.62-1.47-0.65c-1.87-0.09-3.31-0.82-4.43-2.42
				c-1.35-1.93-3.05-3.56-4.91-5.02c-3.33-3.13-7.54-4.82-11.54-6.9c0.46-0.2,0.85-0.2,1.24-0.19c2.47,0.06,4.92,0.6,7.39,0.33
				c5.9-0.66,7.4-1.87,8.66-6.58c0.14-0.51,0.31-1.01,0.53-1.48c1.36-2.83,0.47-5.34-1.07-7.78c-2.68-4.22-6.52-7.05-11.03-8.94
				c-3.05-1.27-6.27-2.14-9.42-3.18c-0.51,0.02-0.98-0.1-1.41-0.38c-3.45-1.25-6.97-2.21-10.58-2.86
				c-6.17-1.68-12.43-2.88-18.79-3.55c-2.98-0.67-6.02-0.8-9.04-1.12c-6.68-0.71-13.38-0.79-20.09-0.62
				c-6.67-0.09-13.28,0.51-19.87,1.48c-1.62,0.22-3.25,0.38-4.86,0.66c-5.41,0.95-10.82,1.89-16.06,3.58
				c-3.76,0.86-7.42,2.02-10.98,3.51c-4.62,1.41-8.86,3.69-13.14,5.84c-3.14,1.58-6.21,3.35-8.52,6.13c-1.15,0.77-1.86,1.95-2.7,3
				c-3.22,4.06-6.36,8.19-8.04,13.17c-0.46,1.37-1.21,2.22-2.35,3.05c-3.91,2.85-7.19,6.31-9.63,10.53
				c-4.45,7.05-8.98,14.06-12.25,21.76c-1.3,3.05-1.87,6.34-1.45,9.67c1.25,9.9,3.81,19.56,5.44,29.39
				c0.47,2.83,2.08,5.49,1.86,8.37c-0.38,4.97,2.81,8.73,3.99,13.15c0.07,0.28,0.46,0.56,0.76,0.66c0.53,0.17,0.61,0.53,0.55,0.95
				c-0.2,1.36,0.67,2.17,1.5,3.01c1.06,1.24,2.12,2.48,3.18,3.71c2.43,2.82,4.88,5.63,6.65,8.93c0.36,0.66,1.09,1.35,0.6,2.22
				c-0.58,1.03-1.64,0.79-2.54,0.72c-2.9-0.24-5.53-1.29-8-2.79c-3.15-2.48-5.79-5.5-8.77-8.16c-0.31-0.28-0.65-1.05-1.27-0.4
				c-0.45,0.47-0.24,1.01,0.12,1.43c0.84,0.98,1.71,1.94,2.59,2.89c1.2,1.29,2.53,2.48,3.46,4c0.51,0.84,0.76,1.76,0.09,2.63
				c-0.61,0.8-1.41,1.1-2.48,0.91c-1.09-0.19-2.15-0.63-3.3-0.49c-1.26,0.15-2.11,0.67-2.05,2.12c0.02,0.44,0.21,0.93-0.21,1.4
				c-1.72-0.77-3.55-1.08-5.45-1.12c-2.68-0.05-4.95-0.84-6.11-3.58c-0.24-0.56-0.73-1.06-1.38-1.3c-2.3-0.87-4.74-1.17-7.11-1.78
				c-6.05-1.56-12.27-2.07-18.45-2.78c-2.49-0.29-4.98-0.84-7.59-0.73c0.09,0.68,0.15,1.25,0.25,1.81c0.45,2.57,0.45,2.57,3.1,2.4
				c0.71-0.04,1.42-0.04,2.12-0.06c0.25,0.12,0.49,0.24,0.74,0.36c-1.21,0.24-2.41,0.61-3.62,0.68c-1.42,0.09-1.5,0.83-1.22,1.89
				c0.88,3.23,1.82,6.44,2.63,9.68c0.29,1.17,0.8,1.71,2.02,2.04c7.92,2.2,15.5,5.08,21.7,10.83c1.45,1.34,3.35,2.17,5.46,2.16
				c3.59,0.06,7.11-0.49,10.55-1.39c4.97-1.29,9.95-2.65,14.26-5.65c1.23-0.59,2.22-1.52,3.26-2.39c0.4-0.33,0.67-1.15,1.42-0.6
				c0.65,0.48,0.2,1.04,0.05,1.59c-0.3,1.13-0.51,2.29-0.84,3.42c-0.74,2.5-1.18,5.15-3.16,7.11c-0.6,1.95-0.01,3.31,1.74,3.87
				c-0.95,0.79-2.3,0.35-3.17,1.16c-1.29,0.28-2.42,0.89-3.08,2.03c-0.35,0.61,0.63,0.65,0.91,1.14c-1.74,0.08-2.71,0.85-2.41,2.67
				c0.16,0.96-0.64,0.95-1.16,1.22c-0.7,0.37-1.9,0.83-1.82,1.32c0.18,1.01,1.36,0.8,2.22,0.88c0.07,0.01,0.13,0.11,0.33,0.27
				c-4.14,1.81-8,4-12.24,5.32c-0.95,0.3-1.3,0.66-1.63,1.62c-0.46,1.32,1.21,0.46,1.02,1.32c-3.57,1.91-7.16,3.82-10.74,5.76
				c-0.63,0.34-1.42,0.49-0.56,1.59c2.98,3.8,6.1,7.49,9.3,11.11c0.56,0.63,1.14,0.79,1.87,0.59c6.86-1.92,13-5.24,18.64-9.54
				c0.59-0.36,1.2-0.69,1.76-1.09c3.64-2.63,6.98-5.61,10.15-8.79c0.3-0.3,0.55-0.99,1.09-0.62c0.44,0.3,0.12,0.84-0.04,1.29
				c-1.47,4.24-4.18,7.56-7.65,10.32c-1.82,1.45-4.06,2.35-5.6,4.17c-0.34,0.22-0.69,0.43-1.03,0.65
				c-4.26,2.71-8.41,5.64-13.58,6.45c-0.59,0.09-1.35-0.09-1.61,0.74c3.23,3.06,6.45,6.14,9.85,9.02c2.6,2.21,2.57,2.26,5.35,0.36
				c0.57-0.39,1.1-0.82,1.65-1.24c0.68-0.43,1.31-1,2.05-1.25c1.97-0.68,3.71-2.56,6.11-1.23c0.46,0.26,0.85-0.19,1.21-0.51
				c3.84-3.41,7.83-6.54,13.04-7.5c0.12,0,0.26-0.02,0.43-0.08c0.59,0.03,1.18,0.08,1.76,0.08c0.79,0.01,1.1,0.56,1.37,1.15
				c0.34,0.77-0.48,0.82-0.8,1.1c-0.84,0.74-1.82,1.31-2.64,2.06c-0.54,0.5-1.99,0.78-1.36,1.66c0.6,0.84,1.56-0.26,2.25-0.66
				c1.53-0.89,2.76-2.27,4.58-2.9c-0.23,1.19-0.75,1.97-1.61,2.59c-2.5,1.78-4.83,3.77-7.08,5.84c-3.97,3.65-7.79,7.46-11.32,11.6
				c4.37,3,8.96,5.37,13.42,7.94c0.69,0.32,1.38,0.63,2.06,0.95c6.45,3.1,13.02,5.9,19.86,8.05c3.63,1.18,7.25,2.41,11.03,3.04
				c6.85,1.88,13.82,3.11,20.92,3.54c2.35,0.59,4.76,0.6,7.15,0.68c4.23,0.15,8.47,0.1,12.71,0.14c0.12-0.05,0.24-0.1,0.35-0.14
				c5.29,0.11,10.51-0.58,15.75-1.24c1.34-0.17,2.36-0.19,2.66-1.95c0.73-4.37,1.71-8.7,2.58-13.05c0.56-0.51,0.69-1.2,0.82-1.9
				c1.3-6.85,2.96-13.57,6.64-19.62c0.3-0.49,0.52-1.04,0.38-1.61c1.11-0.53,1.6-1.64,2.3-2.56c3.95-5.16,7.78-10.46,14.75-11.86
				c0.46-0.09,0.81-0.32,1.01-0.67c0.18,0.17,0.41,0.27,0.66,0.28c3.23,0.14,6.47,0.18,9.68,0.7c0.46,0.07,0.97,0.07,1.27-0.38
				c0.48,0.72,1.27,0.77,2.01,0.89c3,0.48,5.95,1.34,9.03,1.26c2.1,0.23,4.2,0.45,6.31,0.67c6.2,2.62,11.94,1.42,17.43-2.05
				c1.2-0.49,2.01-1.44,2.71-2.45c1.76-2.5,2.38-5.41,2.94-8.35c0.45-2.3,0.04-4.39-1.05-6.42c-1.16-2.16-0.96-3.31,0.88-4.97
				c1.17-1.06,2.47-2,3.64-3.07c1.61-1.48,1.74-2.54,0.79-4.54c-0.55-1.15-1.41-2.17-1.51-3.52c-0.99-0.83-2.61-0.53-3.5-1.83
				c2.11-1.07,4.14-2.02,5.71-3.67c1.87-1.96,2.13-3.7,0.82-6.06c-0.77-1.38-1.6-2.73-2.05-4.27c-0.82-2.77,0.03-4.59,2.74-5.53
				c1.88-0.65,3.83-1.08,5.71-1.71C369.02,289.61,370.34,287.2,369.84,283.66z M109.29,280.58c-0.01,0-0.01,0-0.02,0.01
				C109.3,280.58,109.31,280.57,109.29,280.58z M109.22,280.61C109.22,280.61,109.22,280.61,109.22,280.61
				C109.22,280.61,109.22,280.61,109.22,280.61C109.22,280.61,109.22,280.61,109.22,280.61z M344.36,240.49
				c-0.8,1.34-1.89,2.41-3.1,3.38c-0.86,0.68-1.25,1.51-0.42,2.42c1.15,1.26,0.36,1.7-0.75,2.07c-0.39,0.13-0.81,0.21-1.16,0.43
				c-1.4,0.9-3.03,1.84-2.97,3.67c0.05,1.71-0.06,3.42-0.05,5.12c0.04,4.46,0.01,4.44-4.45,5.27c-0.66,0.12-1.43,0.07-1.9,0.59
				c-1.48-0.98-3.23-0.15-4.81-0.6c1.14,0.05,2.25,0.3,3.32-0.18c1.14-0.52,1.69-1.43,1.67-2.67c-0.01-0.71-0.02-1.45-0.86-1.77
				c-1.88-0.7-3.55-1.98-5.72-1.9c-0.8,0.03-1.61-0.34-2.35-0.71c-0.66-0.33-1.76-0.64-1.58-1.4c0.18-0.79,1.32-0.63,2.02-0.5
				c1.64,0.28,2.61-0.4,3.14-1.87c0.35-0.95,1.02-1.46,1.96-1.88c1.3-0.58,2.57-1.31,2.96-2.84c1.68-1.07,3.37-2.11,5.02-3.21
				c0.93-0.62,1.74-1.41,2.33-2.37c0.65-1.05,0.66-1.96-0.8-2.19c-2.36-0.37-4.66-1.26-7.11-1.03c-0.01-0.02-0.02-0.05-0.03-0.07
				c-0.95-0.71-2.02-0.44-3.06-0.37c-3.66,0.24-7.16,1.21-10.63,2.3c0.36-0.21,0.72-0.42,1.06-0.67c0.42-0.32,0.98-0.62,0.94-1.13
				c0.12,0,0.24-0.03,0.34-0.12c0.01-0.03,0.02-0.05,0.03-0.08c0.57-0.21,1.17-0.37,1.69-0.71c0.23,0.04,0.45,0.07,0.66,0.06
				c3.13-0.58,6.03-2.03,9.21-2.44c0.42-0.05,0.71-0.27,0.83-0.62c0.69,0.53,1.46,0.29,2.2,0.13c1.61-0.34,3.21-0.52,4.85-0.35
				c0.38,0.04,0.77,0.09,1.11-0.11c1.17,1.18,2.85,1.06,4.32,1.42C345.17,236.27,345.9,237.91,344.36,240.49z"/>
		</g>
	</g>
	
		<circle style="fill-rule:evenodd;clip-rule:evenodd;fill:none;stroke:#FEFEFE;stroke-width:5.6269;stroke-miterlimit:10;" cx="250" cy="250" r="157.61"/>
	
		<ellipse transform="matrix(0.7071 -0.7071 0.7071 0.7071 -103.5534 250.0001)" style="fill-rule:evenodd;clip-rule:evenodd;fill:none;stroke:#FEFEFE;stroke-width:5.6269;stroke-miterlimit:10;" cx="250" cy="250" rx="227.7" ry="227.7"/>
	<path style="fill-rule:evenodd;clip-rule:evenodd;fill:#FEFEFE;" d="M182.76,421.98"/>
</g>
<g>
</g>
<g>
</g>
<g>
</g>
<g>
</g>
<g>
</g>
<g>
</g>
<g>
</g>
<g>
</g>
<g>
</g>
<g>
</g>
<g>
</g>
<g>
</g>
<g>
</g>
<g>
</g>
<g>
</g>
</svg>
