<?xml version="1.0" encoding="utf-8"?>
<!-- Generator: Adobe Illustrator 24.1.3, SVG Export Plug-In . SVG Version: 6.00 Build 0)  -->
<svg version="1.1" id="Calque_1" xmlns="http://www.w3.org/2000/svg" xmlns:xlink="http://www.w3.org/1999/xlink" x="0px" y="0px"
	 viewBox="0 0 500 500" style="enable-background:new 0 0 500 500;" xml:space="preserve">
<g>
	<path style="fill:#FEFEFE;" d="M183.73,319.01c-2.06-6.37-3.25-12.15-4-18.04c-0.25-1.98,0.64-3.27,1.94-4.63
		c39.27-41.14,62.54-90.01,70.78-146.21c3.6-24.55,5.34-49.2,5.7-73.98c0.16-10.94,0.31-21.87,0.27-32.81
		c-0.01-2.69,0.71-3.62,3.5-3.56c7.72,0.17,15.45,0.23,23.17-0.02c3.29-0.11,3.86,1.05,3.93,4.07c0.63,28.62,2.23,57.19,5.78,85.62
		c6.42,51.41,22.78,99.27,50.61,143.15c19.49,30.73,42.02,59.22,64.08,88.06c5.72,7.48,11.56,14.87,17.9,23.02
		c-12.23,0-23.58-0.03-34.93,0.03c-1.61,0.01-2.23-1.01-2.93-2.08c-24.83-37.9-52.8-73.68-76.47-112.33
		c-21-34.29-32.8-71.98-38.62-111.62c-1.24-8.42-2.1-16.9-3.16-25.35c-0.16-1.24-0.19-2.56-1.75-4.15
		c-7.26,56.47-22.14,109.56-58.61,155.45c4.04-2.14,7.31-3.99,10.68-5.64c30.88-15.11,76.29-9.72,104.45,24.8
		c14.66,17.97,26.81,37.71,40.07,56.67c5.39,7.71,10.53,15.6,16.33,24.24c-9.19,0-17.47-0.05-25.75,0.04
		c-2.11,0.02-2.6-1.42-3.38-2.82c-4.09-7.27-8.23-14.51-12.55-22.1c-7.68,7.03-15.55,13.25-24.4,18.19
		c-20.17,11.25-41.87,15.83-64.83,15.39c-29.86-0.57-58.83-5.15-86.09-18.06c-38.99-18.46-62.65-49.59-74.54-90.33
		c-5.81-19.91-7.58-40.41-7.67-61.05c-0.14-32.83-0.09-65.66,0.05-98.48c0.02-3.55-0.74-4.91-4.45-4.5
		c-3.18,0.35-6.44-0.06-9.65,0.11c-2.29,0.13-2.59-0.94-2.59-2.85c0-1.98,0.51-3.02,2.71-2.87c1.92,0.13,3.86,0.02,5.79,0.02
		c34.44-0.01,68.88-0.01,103.32-0.03c2.44,0,5.02-0.51,4.49,3.48c-0.21,1.6-0.64,2.36-2.28,2.2c-0.48-0.05-0.97-0.04-1.45,0
		c-3.95,0.35-9.22-1.79-11.49,0.94c-1.92,2.31-0.6,7.38-0.59,11.23c0.08,47.31-0.2,94.62,0.45,141.93
		c0.27,19.8,3.44,39.43,12.28,57.54c14.35,29.4,37.92,45.03,70.71,47.25c30.45,2.07,57.11-6.16,79.73-27
		c3.16-2.91,3.74-4.92,1.21-8.7c-6.97-10.41-13.58-21.06-21.41-30.88c-18.52-23.22-42.88-30.6-71.34-25.73
		C216.72,290.37,198.45,301.16,183.73,319.01z"/>
	<path style="fill:#FEFEFE;" d="M379.48,309.07c-3.51-4.78-6.39-8.85-9.43-12.78c-1.26-1.63-1.19-3.01-0.48-4.86
		c7-18.26,7.26-37.38,7.02-56.56c-0.14-10.93-0.27-21.87-0.29-32.8c-0.04-25.58-0.14-51.17,0.1-76.75c0.04-4.55-1.32-5.85-5.61-5.36
		c-3.02,0.34-6.11,0-9.16,0.08c-1.96,0.05-3.36,0.01-3.28-2.69c0.07-2.31,0.79-3.04,3.07-3.04c17.06,0.07,34.11,0.08,51.17-0.01
		c2.49-0.01,2.86,1.01,2.92,3.15c0.06,2.31-0.99,2.64-2.9,2.59c-3.54-0.1-7.1,0.22-10.61-0.1c-3.52-0.32-4.18,1.06-4.17,4.32
		c0.12,34.43,0.35,68.87-0.02,103.3c-0.28,26.01-3.34,51.62-15.09,75.41C381.81,304.82,380.79,306.61,379.48,309.07z"/>
	<path style="fill:#FEFEFE;" d="M76.57,439.35c0-3.05,0.06-6.11-0.02-9.16c-0.05-1.91-0.1-3.3,2.62-3.35
		c2.82-0.05,3.06,1.21,3.02,3.45c-0.12,5.78-0.11,11.57-0.04,17.36c0.07,5.42,2.77,8.1,7.93,8.13c5.12,0.02,8.1-2.58,8.32-7.89
		c0.24-5.94,0.12-11.89,0.03-17.84c-0.03-2.03,0.11-3.27,2.74-3.23c2.49,0.04,2.39,1.33,2.38,3.06c-0.05,6.11,0.1,12.22-0.05,18.32
		c-0.18,7.88-5.02,11.92-13.79,11.76c-8.62-0.16-13.01-4.14-13.14-11.94C76.53,445.13,76.57,442.24,76.57,439.35z"/>
	<path style="fill:#FEFEFE;" d="M305.9,443.04c0,4.5-0.04,8.99,0.01,13.49c0.02,1.84-0.51,3.75-2.54,2.89
		c-3-1.26-5.46,0.37-8.17,0.49c-4.27,0.19-8.02-1.06-10.14-5.09c-2.49-4.74-2.55-9.66,0.33-14.19c2.47-3.88,6.63-5.7,10.87-4.48
		c4.7,1.36,4.25-0.85,4.5-4.02c0.17-2.08-2.48-6.14,2.66-5.99c4.61,0.14,2.11,3.83,2.34,5.83
		C306.21,435.62,305.9,439.35,305.9,443.04z M300.63,447.78c0-7.29-0.48-8.13-4.69-8.22c-4.54-0.1-7.54,3.4-7.42,8.65
		c0.11,4.95,2.78,8.21,6.97,7.92C300.54,455.78,300.97,455.5,300.63,447.78z"/>
	<path style="fill:#FEFEFE;" d="M343.12,443.03c0-4.17,0.24-8.37-0.07-12.52c-0.24-3.16,1.01-3.84,3.81-3.64
		c3.2,0.23,6.43-0.04,9.62,0.22c5.74,0.47,8.83,3.82,8.92,9.31c0.1,5.68-3.15,9.41-8.78,10.06c-7.88,0.91-7.83,0.91-7.97,8.71
		c-0.03,1.82,1.09,4.35-2.54,4.45c-3.81,0.11-2.95-2.45-2.97-4.55C343.09,451.06,343.12,447.04,343.12,443.03z M348.56,436.37
		c0.87,2.5-2.01,6.86,4.02,6.39c5.22-0.4,7.3-1.77,7.28-6.08c-0.03-4.31-2.28-5.86-7.79-6.17
		C346.5,430.21,349.56,434.34,348.56,436.37z"/>
	<path style="fill:#FEFEFE;" d="M109.09,447.72c0-2.9,0.15-5.8-0.04-8.69c-0.18-2.7,2.09-3.56,3.21-2.59
		c2.26,1.96,3.98,0.75,5.95,0.18c8.15-2.36,11.4,0.05,11.4,8.47c0,3.86-0.07,7.72,0.03,11.58c0.05,1.93-0.32,2.93-2.61,2.9
		c-2.34-0.03-2.57-1.19-2.53-3.04c0.08-4.02-0.03-8.05,0.04-12.07c0.05-2.67-0.25-5.06-3.71-4.79c-3.16,0.25-6.71,0.31-6.81,4.88
		c-0.08,3.7,0.03,7.4-0.04,11.1c-0.03,1.77,0.79,4.04-2.55,3.93c-3.37-0.11-2.23-2.48-2.32-4.15
		C108.99,452.88,109.08,450.3,109.09,447.72z"/>
	<path style="fill:#FEFEFE;" d="M330.31,453.88c0.46,1.71,0.71,3-0.73,4.14c-3.57,2.84-12.04,2.52-15.9-0.71
		c-4.11-3.43-5.16-11.43-2.16-16.36c2.77-4.54,8.62-6.27,13.97-4.23c2.42,0.93,4.02,2.58,4.88,4.96c1.79,4.93,0.87,6.23-4.35,6.25
		c-2.57,0.01-5.15,0.2-7.7-0.02c-4.04-0.35-3.83,1.67-2.64,4.33c1.61,3.6,5.57,5.03,10.35,3.64
		C327.38,455.49,328.61,454.69,330.31,453.88z M321.16,445.33c1.05-1.83,4.46,1.58,4.48-2.3c0.01-2.59-2.15-4-4.54-4.05
		c-2.85-0.06-5.44,1.75-5.27,4.46C316.03,446.5,319.25,443.97,321.16,445.33z"/>
	<path style="fill:#FEFEFE;" d="M272.18,453.95c0.44,1.58,0.77,2.89-0.62,4.05c-3.4,2.84-12.12,2.54-15.92-0.6
		c-4.33-3.59-5.25-11.51-1.94-16.76c2.73-4.34,9.05-6.06,14.1-3.82c1.98,0.88,3.46,2.33,4.34,4.3c2.31,5.11,1.17,6.85-4.42,6.84
		c-2.4,0-4.82,0.14-7.21-0.04c-4.31-0.33-4.08,1.85-2.71,4.65c1.67,3.4,6.03,4.72,10.52,3.18
		C269.63,455.31,270.84,454.59,272.18,453.95z M262.46,445.09c1.54-1.24,4.88,1.65,5.12-1.96c0.18-2.71-2.34-4.13-4.88-4.12
		c-2.87,0.01-5.22,2.09-5.06,4.66C257.78,446.09,260.76,444.27,262.46,445.09z"/>
	<path style="fill:#FEFEFE;" d="M376.69,435.91c6.66,0.04,8.04,1.45,8.05,8.21c0,3.05,0.01,6.1,0.01,9.15
		c0,1.28-0.17,2.74,1.53,3.06c0.98,0.18,2.38-0.65,2.29,1.32c-0.07,1.7-1.69,2.61-2.57,2.12c-4.58-2.52-9,0.56-13.44,0.02
		c-2.89-0.36-5.1-1.91-5.51-5.13c-0.41-3.24,0.77-5.7,3.82-6.99c2.21-0.93,4.53-1.61,6.78-2.45c1.49-0.56,2.35-1.53,2.14-3.28
		c-0.23-1.94-1.63-2.19-3.11-2.28c-2.08-0.12-4.15-0.12-6.13,0.79c-0.73,0.34-1.86,1.17-2.24-0.42c-0.23-0.95-0.09-1.88,0.96-2.45
		C371.6,436.29,374.1,435.92,376.69,435.91z M379.64,447.76c-3.21,1.9-8.31,1.04-7.58,6.66c0.28,2.14,2.33,2.61,4.13,2.19
		C381.27,455.41,379.66,451.5,379.64,447.76z"/>
	<path style="fill:#FEFEFE;" d="M186.13,453.87c0.5,1.91,0.4,3.15-1.01,4.22c-3.69,2.79-12.19,2.4-15.89-0.84
		c-4.24-3.71-5.13-11.12-1.97-16.38c2.72-4.53,8.7-6.25,14.01-4.11c2.57,1.04,4.22,2.87,5.01,5.46c1.37,4.48,0.49,5.67-4.17,5.72
		c-2.73,0.03-5.47,0.18-8.19-0.03c-3.77-0.29-3.48,1.84-2.65,4.19c1.23,3.49,5.64,5.11,10.28,3.78
		C183.07,455.44,184.48,454.61,186.13,453.87z M176.61,445.38c1.25-1.86,4.52,1.4,4.84-1.92c0.25-2.57-1.98-4.41-4.71-4.47
		c-2.91-0.07-5.45,1.79-5.36,4.43C171.48,446.75,174.77,443.94,176.61,445.38z"/>
	<path style="fill:#FEFEFE;" d="M154.07,453.98c2.06-5.59,3.85-10.21,5.45-14.9c0.69-2.02,1.94-3.15,3.87-2.43
		c2.45,0.91,0.57,2.58,0.13,3.78c-1.98,5.41-4.17,10.74-6.11,16.15c-0.75,2.09-1.79,2.97-4.12,3.03c-2.52,0.07-2.86-1.59-3.46-3.19
		c-2.04-5.38-4.1-10.76-6.02-16.19c-0.39-1.1-2.34-2.77-0.05-3.51c1.79-0.58,4.04-0.81,4.95,2.13
		C150.17,443.57,151.99,448.18,154.07,453.98z"/>
	<path style="fill:#FEFEFE;" d="M417.76,454.2c2.47,1.11,4.83,2.6,7.67,2.25c1.6-0.2,3.32-0.42,3.7-2.43
		c0.36-1.96-0.9-2.93-2.49-3.58c-1.63-0.67-3.28-1.26-4.9-1.94c-2.87-1.21-4.19-3.45-3.87-6.5c0.32-3.06,2.2-4.83,5.14-5.65
		c2.74-0.76,5.36-0.45,8.04,0.33c1.84,0.53,2.39,1.82,1.86,3.28c-0.65,1.78-1.79,0.18-2.73,0c-0.63-0.12-1.26-0.29-1.89-0.33
		c-2.23-0.11-5-0.66-5.62,2.24c-0.57,2.7,2.11,3.12,4.01,3.86c3.27,1.27,6.89,2.15,7.29,6.61c0.46,5.16-3.62,8.18-10.23,7.53
		C418.59,459.37,417.46,458.31,417.76,454.2z"/>
	<path style="fill:#FEFEFE;" d="M243.45,430.68c-0.67,4.19,0.13,6.91,5.01,5.92c1.11-0.22,1.71,0.46,1.7,1.71
		c-0.01,1.35-0.86,1.74-1.86,1.53c-5.38-1.09-5.16,2.31-4.9,5.89c0.12,1.6,0.1,3.21,0,4.81c-0.25,4,0.36,7.01,5.5,4.97
		c1-0.4,1.5-0.26,1.56,0.84c0.06,0.96,0.17,2.02-0.91,2.51c-2.73,1.24-5.54,1.58-8.39,0.38c-2.56-1.08-2.7-3.3-2.68-5.64
		c0.04-3.21,0.02-6.42,0.01-9.63c0-0.96,0.25-2.57-0.16-2.78c-6.88-3.39,2.36-5.74,0.65-8.87
		C238.88,432.1,241.26,430.92,243.45,430.68z"/>
	<path style="fill:#FEFEFE;" d="M205.98,454.31c2.74,1.07,5.27,2.63,8.29,2.06c1.44-0.27,2.9-0.59,3.22-2.38
		c0.32-1.76-0.78-2.73-2.14-3.36c-1.74-0.8-3.58-1.39-5.34-2.15c-2.84-1.23-4.28-3.51-3.93-6.51c0.34-2.97,2.22-4.83,5.21-5.6
		c2.58-0.67,5.03-0.49,7.59,0.17c2.23,0.57,2.82,1.78,2.28,4.04c-2.01-0.35-3.96-0.79-5.93-0.99c-1.81-0.18-3.75,0.01-4.34,2.11
		c-0.68,2.37,1.4,2.93,2.97,3.64c1.6,0.72,3.35,1.16,4.9,1.98c2.65,1.4,3.98,3.63,3.57,6.74c-0.38,2.92-2.16,4.46-4.87,5.28
		c-3.05,0.93-5.98,0.68-8.99-0.23C205.95,458.34,205.18,456.89,205.98,454.31z"/>
	<path style="fill:#FEFEFE;" d="M190.52,448.08c0-3.04,0.14-6.08-0.05-9.11c-0.15-2.35,1.69-3.27,2.85-2.57
		c2.87,1.73,5.1,0.15,7.62-0.42c1.68-0.38,3.15,0.06,3.23,2.38c0.07,2.09-0.79,2.13-2.59,2.01c-4.19-0.28-6.1,1.87-5.84,6.15
		c0.2,3.35,0,6.71,0.08,10.07c0.05,1.9-0.37,2.98-2.63,2.95c-2.09-0.03-2.81-0.78-2.71-2.84
		C190.63,453.84,190.52,450.96,190.52,448.08z"/>
	<path style="fill:#FEFEFE;" d="M391.26,447.52c-0.01-2.89,0.15-5.79-0.05-8.66c-0.17-2.46,1.89-3.16,2.93-2.52
		c2.54,1.57,4.48,0.66,6.81-0.19c1.54-0.57,3.63-0.82,4.06,1.85c0.47,2.9-1.24,2.33-3.14,2.36c-3.47,0.05-5.71,1.69-5.56,5.65
		c0.14,3.69-0.05,7.38,0.05,11.07c0.05,1.9-0.68,2.51-2.53,2.49c-1.76-0.02-2.66-0.44-2.59-2.42
		C391.36,453.94,391.27,450.73,391.26,447.52z"/>
	<path style="fill:#FEFEFE;" d="M139.77,448.3c0,2.88-0.03,5.76,0.01,8.64c0.03,1.69-0.38,2.72-2.41,2.65
		c-1.79-0.07-2.61-0.68-2.59-2.55c0.05-6.08,0.06-12.16-0.01-18.24c-0.02-1.81,0.59-2.63,2.48-2.63c1.81,0,2.62,0.65,2.57,2.53
		c-0.08,3.2-0.02,6.4-0.02,9.6C139.79,448.3,139.78,448.3,139.77,448.3z"/>
	<path style="fill:#FEFEFE;" d="M231.84,448.1c0.01,2.89-0.09,5.78,0.04,8.66c0.1,2.07-0.65,2.88-2.74,2.86
		c-2.2-0.02-2.63-1.11-2.6-3.04c0.09-5.77,0.07-11.54,0.02-17.31c-0.02-1.81,0.17-3.03,2.5-3.09c2.59-0.07,2.86,1.25,2.79,3.28
		C231.77,442.33,231.83,445.21,231.84,448.1z"/>
	<path style="fill:#FEFEFE;" d="M412.74,448.22c0,2.88-0.05,5.77,0.02,8.65c0.04,1.67-0.26,2.72-2.31,2.74
		c-2.19,0.02-2.67-0.97-2.64-2.94c0.09-5.92,0.08-11.85-0.01-17.78c-0.02-1.76,0.41-2.63,2.36-2.69c2.21-0.07,2.72,0.92,2.65,2.89
		c-0.11,3.04-0.03,6.09-0.03,9.13C412.77,448.22,412.75,448.22,412.74,448.22z"/>
	<path style="fill:#FEFEFE;" d="M260.37,432.9c2.47-7.25,2.47-7.25,7.87-6.33C265.41,428.66,265.61,433.86,260.37,432.9z"/>
	<path style="fill:#FEFEFE;" d="M139.75,430.54c0.34,1.98-0.65,2.52-2.46,2.42c-1.38-0.08-2.56-0.06-2.48-1.99
		c0.07-1.59,0.15-2.84,2.28-2.81C138.79,428.19,139.94,428.53,139.75,430.54z"/>
	<path style="fill:#FEFEFE;" d="M231.8,430.7c0.33,2.5-1.31,2.15-2.72,2.25c-1.75,0.13-2.58-0.38-2.56-2.35
		c0.02-2.31,1.32-2.43,3.08-2.44C231.6,428.15,232.05,429.18,231.8,430.7z"/>
	<path style="fill:#FEFEFE;" d="M412.71,430.55c0.35,1.86-0.43,2.52-2.31,2.44c-1.62-0.07-2.71-0.21-2.63-2.29
		c0.07-1.76,0.56-2.56,2.45-2.55C411.96,428.17,412.98,428.59,412.71,430.55z"/>
</g>
<g>
</g>
<g>
</g>
<g>
</g>
<g>
</g>
<g>
</g>
<g>
</g>
<g>
</g>
<g>
</g>
<g>
</g>
<g>
</g>
<g>
</g>
<g>
</g>
<g>
</g>
<g>
</g>
<g>
</g>
</svg>
