<?xml version="1.0" encoding="utf-8"?>
<!-- Generator: Adobe Illustrator 24.1.3, SVG Export Plug-In . SVG Version: 6.00 Build 0)  -->
<svg version="1.1" id="Calque_1" xmlns="http://www.w3.org/2000/svg" xmlns:xlink="http://www.w3.org/1999/xlink" x="0px" y="0px"
	 viewBox="0 0 200 200" style="enable-background:new 0 0 200 200;" xml:space="preserve">
<g>
	<path d="M151.7,70.5l-13.2,13.2L121,79l-4.7-17.5l13.2-13.1c-1.7-0.3-3.5-0.5-5.3-0.5c-15.5,0-28,12.5-28,28c0,2.9,0.4,5.7,1.2,8.3
		L51.6,130c-5.1,5.1-5.1,13.3,0,18.4c2.6,2.5,5.9,3.8,9.2,3.8s6.7-1.3,9.2-3.8l45.9-45.9c2.6,0.8,5.4,1.2,8.3,1.2
		c15.5,0,28-12.5,28-28C152.2,74,152,72.2,151.7,70.5z"/>
</g>
</svg>
