<?xml version="1.0" encoding="utf-8"?>
<!-- Generator: Adobe Illustrator 24.1.3, SVG Export Plug-In . SVG Version: 6.00 Build 0)  -->
<svg version="1.1" id="icon" xmlns="http://www.w3.org/2000/svg" xmlns:xlink="http://www.w3.org/1999/xlink" x="0px" y="0px"
	 viewBox="0 0 200 200" enable-background="new 0 0 200 200" xml:space="preserve">
<g>
	<path d="M137.7886,147.4555c-11.6564,0-23.3302,0.0992-35.0031-0.0624c-2.5469-0.0184-2.7975,0.9686-2.8333,3.084
		c-0.0358,2.2328,0.4838,3.0132,2.9049,2.9774c13.7533-0.1258,27.4892,0.0441,41.2251-0.1258
		c2.9765-0.0358,3.6578,0.852,3.4613,3.6219c-0.4131,6.402,0.6271,12.8481-0.628,19.2051
		c-2.0804,10.517-11.8886,18.7029-22.6296,18.7662c-16.2111,0.0891-32.4213,0.1249-48.6499-0.0184
		c-12.1935-0.09-22.9345-10.8044-23.0419-23.0153c-0.1441-15.3233-0.1616-30.6283,0-45.9598
		c0.1249-12.3367,10.9916-22.8812,23.4009-22.9345c15.6364-0.0808,31.2553-0.0275,46.8743-0.0275
		c17.2504-0.0174,30.5732-13.3503,30.5732-30.6457c0-5.8364-0.0174-11.6646,0.0184-17.5011c0-0.9686-0.4838-2.3495,1.3625-2.2861
		c6.9216,0.1882,13.8617-0.6822,20.7117,0.4297c11.7454,1.9014,19.3483,10.7686,19.4199,22.604
		c0.1074,16.3084,0.1074,32.627,0,48.9354c-0.0891,13.566-9.4676,22.8454-23.0602,22.9528
		C160.5257,147.5363,149.1567,147.4555,137.7886,147.4555z M135.6365,174.6858c0.2507-4.8513-3.5145-9.0921-8.3209-9.4061
		c-4.967-0.3223-9.2886,3.5687-9.4676,8.5265c-0.1974,4.8238,3.6578,9.0379,8.4457,9.2537
		C131.1176,183.2931,135.3675,179.482,135.6365,174.6858z"/>
	<path d="M62.5097,52.5153c11.5664,0,23.1328-0.0716,34.7166,0.0542c2.4211,0.045,2.9407-0.7262,2.8691-2.9683
		c-0.0716-1.9987-0.1074-3.1197-2.7617-3.0931c-13.9333,0.1432-27.884,0-41.8347,0.135c-2.5643,0.0358-3.1207-0.7538-2.9765-3.1473
		c0.3581-6.4911-0.6638-13.0638,0.6096-19.5007C55.2658,13.0832,65.0382,5.0855,76.1924,5.0405
		c15.9238-0.045,31.8466-0.0624,47.7703,0c12.714,0.0716,23.455,10.7952,23.5092,23.4908c0.1074,15.0093,0.1074,30.0627,0,45.0986
		c-0.0725,12.8839-10.5445,23.3026-23.4908,23.3742c-15.6189,0.0716-31.2379,0.0092-46.8743,0.0092
		c-17.3937,0-30.4841,13.1712-30.4841,30.6007c0,5.9448,0,11.8795-0.0184,17.8151c0,0.8878,0.359,2.1071-1.2909,2.0263
		c-7.0116-0.2332-14.0765,0.673-21.034-0.4747c-11.2432-1.8206-18.9903-10.4995-19.1518-21.9043
		c-0.2148-16.7932-0.2323-33.613,0.0367-50.4154c0.2148-13.1079,9.6466-22.0026,22.9345-22.1274
		C39.5569,52.4436,51.0333,52.5153,62.5097,52.5153z M73.2517,16.9117c-4.8421,0.0266-8.8231,4.0259-8.8231,8.8855
		c-0.0174,4.9578,4.1609,9.0195,9.0921,8.8938c4.8412-0.0982,8.768-4.1866,8.7147-9.0195
		C82.1454,20.8385,78.1112,16.8759,73.2517,16.9117z"/>
</g>
</svg>
