<?xml version="1.0" encoding="utf-8"?>
<!-- Generator: Adobe Illustrator 24.1.3, SVG Export Plug-In . SVG Version: 6.00 Build 0)  -->
<svg version="1.1" id="icon" xmlns="http://www.w3.org/2000/svg" xmlns:xlink="http://www.w3.org/1999/xlink" x="0px" y="0px"
	 viewBox="0 0 224.3517 200" enable-background="new 0 0 224.3517 200" xml:space="preserve">
<g>
	<path fill="#31C5F0" d="M181.2296,77.7869c-13.4038,0-17.9842,6.7864-17.9842,12.3853c0,6.1078,3.0536,10.3496,21.0384,19.6813
		c26.6373,12.8949,34.9511,25.2802,34.9511,43.4347c0,27.1462-20.6991,41.7375-48.6942,41.7375
		c-14.761,0-27.4862-3.0543-34.7815-7.2953c-1.1875-0.5089-1.3571-1.3571-1.3571-2.715v-24.9409
		c0-1.6964,0.8482-2.206,2.0364-1.3571c10.6889,6.9567,22.9045,10.0103,34.1023,10.0103c13.4038,0,19.0027-5.5989,19.0027-13.2342
		c0-6.1078-3.9025-11.5371-21.0391-20.3598c-24.0927-11.5371-34.1023-23.2438-34.1023-42.7554
		c0-21.8873,17.1366-40.0411,46.8275-40.0411c14.5913,0,24.7712,2.206,30.3701,4.7507c1.3571,0.8482,1.6964,2.2053,1.6964,3.3928
		v23.2438c0,1.3571-0.8482,2.206-2.5453,1.6964C203.2858,80.6715,192.2577,77.7869,181.2296,77.7869L181.2296,77.7869z"/>
	<path fill="#31C5F0" d="M5.1174,7.8846c0-1.1875,2.3757-2.0364,3.7321-2.0364C19.7087,5.3393,35.8268,5,52.6234,5
		c46.9971,0,65.3206,25.7891,65.3206,58.7045c0,43.0947-31.2183,61.5884-69.5623,61.5884c-6.4471,0-8.6525-0.3393-13.2342-0.3393
		v65.1516c0,1.3571-0.5089,2.0357-2.0357,2.0357H7.1531c-1.3571,0-2.0364-0.5089-2.0364-2.0357V7.8846H5.1174z M35.3172,97.9771
		c3.9025,0.3393,6.9567,0.3393,13.7431,0.3393c19.8516,0,38.5143-6.956,38.5143-33.9326c0-21.5473-13.4038-32.4065-35.969-32.4065
		c-6.7864,0-13.2342,0.3393-16.2884,0.5089V97.9771z"/>
</g>
</svg>
