<?xml version="1.0" encoding="utf-8"?>
<!-- Generator: Adobe Illustrator 24.1.3, SVG Export Plug-In . SVG Version: 6.00 Build 0)  -->
<svg version="1.1" id="Calque_1" xmlns="http://www.w3.org/2000/svg" xmlns:xlink="http://www.w3.org/1999/xlink" x="0px" y="0px"
	 viewBox="0 0 1232 500" style="enable-background:new 0 0 1232 500;" xml:space="preserve">
<g>
	<path style="fill-rule:evenodd;clip-rule:evenodd;fill:#CF122E;" d="M274.66,28.6c0.54,0.61,1.28,0.35,1.93,0.38
		c93.45,4.97,174.02,68.73,200.37,158.64c4.11,14.03,6.77,28.33,8.04,42.9c1.05,12.07,1.2,24.14,0.24,36.2
		c-3.55,44.43-18.79,84.43-46.36,119.47c-31.88,40.52-73.07,66.85-123.18,79.1c-11.3,2.76-22.78,4.51-34.4,5.28
		c-2.2,0.15-4.4,0.27-6.59,0.41c-6.71,0-13.43,0-20.14,0c-2.2-0.14-4.4-0.26-6.6-0.41c-12.92-0.85-25.64-2.95-38.16-6.17
		c-64.45-16.54-117.93-60.98-145.99-121.3c-11.79-25.34-18.47-51.98-20.1-79.89c0.19-2.1,0.16-4.17-0.72-6.14c0-4.71,0-9.42,0-14.14
		c0.27-2.48,0.65-4.95,0.8-7.44c0.62-10.33,2.01-20.55,4.14-30.67c8.97-42.6,28.77-79.44,59.3-110.41
		c26.83-27.22,58.7-46.16,95.39-56.94c15.94-4.69,32.23-7.44,48.82-8.41c2.58-0.09,5.17,0.13,7.72-0.47
		C264.33,28.6,269.49,28.6,274.66,28.6z M469.84,250.19c-0.06-113.48-91.89-204.23-203.1-205.35C153.53,43.7,61.01,134.79,59.35,247
		c-1.67,113.22,89.29,207.51,203.75,208.31C377.54,456.12,469.73,363.42,469.84,250.19z"/>
	<path style="fill-rule:evenodd;clip-rule:evenodd;fill:#CF122E;" d="M1189,398.89c-0.23,0.05-0.39,0.16-0.42,0.43
		c-0.83,6.5-4.24,11.44-9.35,15.3c-4.87,3.67-10.48,5.54-16.48,5.99c-14.12,1.06-25.78-3.71-34.48-15.11
		c-0.96-1.26-2.45-2.65-2.29-4.06c0.16-1.37,2.25-1.8,3.51-2.61c3.45-2.22,6.94-4.37,10.43-6.53c1.56-0.97,1.59-0.96,2.49,0.59
		c2.95,5.08,7.23,8.36,13.03,9.43c3.09,0.57,6.2,0.55,9.2-0.64c5.86-2.32,6.97-8.86,2.2-12.98c-1.81-1.56-3.92-2.6-6.13-3.45
		c-3.75-1.44-7.55-2.76-11.32-4.17c-3.35-1.25-6.59-2.73-9.6-4.69c-7.94-5.17-10.95-12.66-10.3-21.88
		c0.93-13.05,10.17-21.03,21.86-23.01c12.06-2.04,22.5,1.52,31.32,9.95c0.59,0.57,1.26,1.1,1.59,2.08
		c-4.17,3.98-8.39,8.01-12.67,12.1c-1.67-1.69-3.25-3.21-5.09-4.44c-3.32-2.22-6.89-3.52-10.95-2.98c-2.99,0.4-5.37,1.69-6.32,4.77
		c-0.97,3.16-0.1,5.84,2.35,8.01c1.67,1.48,3.64,2.47,5.71,3.26c3.62,1.38,7.26,2.69,10.88,4.04c3.28,1.22,6.47,2.64,9.42,4.54
		c6.2,4,10.18,9.45,10.99,16.96c0.03,0.27,0.19,0.37,0.42,0.44C1189,393.12,1189,396,1189,398.89z"/>
	<path style="fill-rule:evenodd;clip-rule:evenodd;fill:#737473;" d="M254.14,471.4c0.14-0.14,0.27-0.29,0.42-0.43
		c6.72,0,13.44,0,20.15,0c0.13,0.14,0.27,0.29,0.41,0.43C268.13,471.4,261.13,471.4,254.14,471.4z"/>
	<path style="fill-rule:evenodd;clip-rule:evenodd;fill:#737473;" d="M43.72,263.21c-0.24,0.07-0.55-0.04-0.72,0.24
		c0-2.13,0-4.26,0-6.38C43.88,259.04,43.91,261.11,43.72,263.21z"/>
	<path style="fill-rule:evenodd;clip-rule:evenodd;fill:#737473;" d="M251.44,29.07c-0.06-0.26-0.23-0.42-0.49-0.47
		c2.74,0,5.47,0,8.21,0C256.61,29.2,254.01,28.98,251.44,29.07z"/>
	<path style="fill-rule:evenodd;clip-rule:evenodd;fill:#CF122E;" d="M528.29,375.98c0-13.68,0-27.36,0-41.04
		c0-0.53,0.03-1.07,0-1.6c-0.07-0.93,0.41-1.21,1.24-1.17c0.46,0.02,0.91,0,1.37,0c8.89,0,17.78-0.01,26.67,0
		c21.15,0.04,39.3,15.47,42.78,36.38c4.01,24.04-12.14,46.62-36.08,50.49c-2.49,0.4-4.99,0.57-7.49,0.58
		c-8.74,0.05-17.48,0.02-26.22,0.02c-0.23,0-0.46-0.02-0.68,0c-1.1,0.1-1.76-0.24-1.6-1.51c0.06-0.45,0.01-0.91,0.01-1.37
		C528.29,403.18,528.29,389.58,528.29,375.98z M547.69,375.78c0,8.36-0.01,16.72,0.01,25.07c0,1.64,0.04,1.67,1.61,1.68
		c2.66,0.02,5.32,0.07,7.98-0.01c9.47-0.31,16.57-4.7,21.01-12.99c4.42-8.26,4.61-16.93,0.9-25.5c-3.16-7.31-8.68-12.15-16.52-14.12
		c-4.64-1.17-9.38-0.53-14.07-0.68c-0.71-0.02-0.91,0.4-0.9,1.02c0,0.53-0.01,1.06-0.01,1.6
		C547.69,359.82,547.69,367.8,547.69,375.78z"/>
	<path style="fill-rule:evenodd;clip-rule:evenodd;fill:#CF122E;" d="M969.95,383.66c8.16,12,16.17,23.79,24.16,35.55
		c-0.45,0.67-1.03,0.44-1.52,0.44c-6,0.02-12.01-0.04-18.01,0.04c-1.41,0.02-2.17-0.51-2.89-1.65
		c-6.42-10.14-12.92-20.23-19.31-30.38c-0.88-1.4-1.82-2.05-3.46-1.88c-1.28,0.13-2.59,0.1-3.87,0.01c-1.24-0.09-1.56,0.44-1.54,1.6
		c0.05,3.72,0.02,7.45,0.02,11.17c0,6.31,0,12.61,0,18.92c0,2.16-0.01,2.18-2.06,2.19c-5.09,0.01-10.18,0.01-15.27,0
		c-1.99,0-2.01-0.03-2.01-2c-0.01-9.19,0-18.39,0-27.58c0-18.46,0-36.93,0-55.39c0-2.57-0.3-2.5,2.42-2.5
		c11.63,0,23.25,0.09,34.88-0.02c14.04-0.13,25.55,11,25.99,25.68c0.26,8.82-2.77,16.2-9.75,21.79
		C975.5,381.4,972.97,382.62,969.95,383.66z M943.53,359.34c0,2.96,0.03,5.93-0.02,8.89c-0.01,1.07,0.16,1.66,1.47,1.64
		c4.71-0.08,9.42,0.07,14.13-0.08c5.91-0.19,10.02-4.51,10.01-10.25c-0.01-5.65-4.3-10.12-10.06-10.28c-4.71-0.13-9.42,0-14.13-0.05
		c-1.15-0.01-1.43,0.44-1.41,1.48C943.55,353.57,943.53,356.45,943.53,359.34z"/>
	<path style="fill-rule:evenodd;clip-rule:evenodd;fill:#CF122E;" d="M722.81,258.04c7.94,11.68,15.94,23.46,23.97,35.27
		c-0.83,0.54-1.52,0.36-2.16,0.37c-5.62,0.02-11.25-0.06-16.87,0.05c-1.72,0.03-2.71-0.46-3.65-1.96
		c-6.29-10.04-12.73-19.99-19.04-30.01c-0.86-1.37-1.77-2.08-3.44-1.91c-1.43,0.15-2.89,0.06-4.33,0.02
		c-0.88-0.02-1.23,0.35-1.19,1.22c0.04,0.83,0.01,1.67,0.01,2.51c0,9.12,0,18.24,0,27.36c0,0.53-0.04,1.07,0,1.6
		c0.08,0.94-0.41,1.15-1.23,1.14c-2.73-0.02-5.47-0.01-8.21-0.01c-2.66,0-5.32,0.01-7.98-0.01c-1.77-0.01-1.77-0.03-1.81-1.71
		c-0.01-0.3,0-0.61,0-0.91c0-27.43,0-54.86,0.01-82.29c0-2.63-0.47-2.56,2.58-2.56c11.4,0,22.8,0.07,34.19-0.02
		c17.45-0.13,28.31,15.01,26.28,30.23c-1.34,10.02-6.58,17.1-16.09,20.86C723.51,257.41,723.1,257.45,722.81,258.04z M696.11,233.58
		c0,2.96,0.04,5.92-0.02,8.88c-0.02,1.05,0.27,1.49,1.4,1.47c4.86-0.06,9.72,0.09,14.57-0.08c5.71-0.2,9.68-4.55,9.65-10.28
		c-0.03-5.64-4.14-10.04-9.79-10.21c-4.78-0.14-9.56,0-14.34-0.06c-1.28-0.02-1.5,0.54-1.48,1.63
		C696.14,227.81,696.11,230.7,696.11,233.58z"/>
	<path style="fill-rule:evenodd;clip-rule:evenodd;fill:#CF122E;" d="M917.25,419.35c-0.55,0.49-1.19,0.3-1.77,0.3
		c-5.55,0.02-11.09,0.02-16.64,0.01c-1.88,0-1.89-0.02-2.5-1.85c-1.4-4.25-2.78-8.51-4.18-12.76c-0.62-1.88-0.63-1.9-2.46-1.9
		c-9.65-0.01-19.3-0.01-28.95,0c-1.76,0-1.77,0.02-2.34,1.75c-1.42,4.33-2.82,8.66-4.24,12.98c-0.58,1.75-0.59,1.78-2.33,1.78
		c-5.62,0.01-11.25,0.01-16.87,0c-1.95,0-1.98-0.04-1.33-1.87c4.79-13.36,9.58-26.71,14.39-40.07c5.16-14.35,10.33-28.7,15.5-43.05
		c0.1-0.29,0.27-0.56,0.32-0.85c0.25-1.43,1.15-1.73,2.46-1.66c1.74,0.1,3.49,0.02,5.24,0.02c4.18,0,8.36-0.01,12.54,0.01
		c1.91,0.01,1.87-0.43,2.71,1.9c5.41,15.07,10.85,30.13,16.28,45.2c4.53,12.57,9.06,25.13,13.57,37.71
		C916.9,417.75,917.37,418.48,917.25,419.35z M864.12,386.96c7.51,0,14.75,0,22.27,0c-3.69-11.34-7.23-22.53-10.93-33.67
		c-0.16,0.02-0.31,0.04-0.47,0.05C871.39,364.49,867.78,375.63,864.12,386.96z"/>
	<path style="fill-rule:evenodd;clip-rule:evenodd;fill:#CF122E;" d="M670.15,293.69c-3.22,0-6.1,0-8.97,0
		c-3.27,0-6.54-0.08-9.8,0.03c-1.41,0.05-1.98-0.5-2.37-1.77c-1.35-4.35-2.85-8.64-4.19-12.99c-0.4-1.29-0.95-1.79-2.37-1.78
		c-9.72,0.07-19.45,0.06-29.17,0.01c-1.32-0.01-1.82,0.45-2.2,1.67c-1.39,4.49-2.93,8.94-4.37,13.41c-0.28,0.88-0.58,1.45-1.67,1.44
		c-6.23-0.05-12.46-0.04-18.68-0.06c-0.14,0-0.28-0.09-0.45-0.15c-0.12-0.7,0.25-1.3,0.47-1.92c9.96-27.7,19.92-55.39,29.89-83.08
		c0.15-0.43,0.33-0.85,0.46-1.28c0.23-0.79,0.75-1.04,1.54-1.01c1.37,0.04,2.73,0.01,4.1,0.01c4.79,0,9.57-0.01,14.36,0
		c2.02,0,2.03,0.01,2.72,1.92c5.32,14.77,10.64,29.55,15.95,44.32c4.65,12.92,9.29,25.84,13.94,38.76
		C669.58,291.9,669.8,292.62,670.15,293.69z M616.79,261.05c7.57,0,14.81,0,22.27,0c-3.69-11.4-7.33-22.63-10.97-33.85
		c-0.13,0.02-0.26,0.05-0.4,0.07C624.08,238.49,620.45,249.7,616.79,261.05z"/>
	<path style="fill-rule:evenodd;clip-rule:evenodd;fill:#CF122E;" d="M748.71,372.48c0.12-18.72,15.76-37.14,37.54-40.96
		c18.19-3.18,37.21,5.78,46.29,21.82c0.95,1.68,0.96,1.7-0.63,2.52c-4.58,2.38-9.19,4.7-13.75,7.12c-1.03,0.55-1.5,0.44-2.13-0.6
		c-4.92-8.13-12.31-12.29-21.67-12.55c-14.68-0.4-24.82,10.06-26.33,22.16c-1.27,10.15,1.84,18.67,10.07,24.89
		c12.03,9.08,29.74,5.67,37.71-7.07c1.06-1.7,1.07-1.71,2.72-0.86c4.45,2.3,8.9,4.6,13.35,6.91c1.62,0.84,1.65,0.88,0.69,2.49
		c-7.55,12.56-18.51,20.28-33.1,21.96c-19.11,2.2-33.95-5.23-44.32-21.36C750.64,391.96,748.73,384.1,748.71,372.48z"/>
	<path style="fill-rule:evenodd;clip-rule:evenodd;fill:#CF122E;" d="M1064.64,375.87c0-13.52,0-27.05,0-40.57
		c0-0.46-0.01-0.91,0-1.37c0.04-1.71,0.04-1.74,1.8-1.74c16.41-0.01,32.82-0.01,49.23,0c1.66,0,1.68,0.04,1.69,1.83
		c0.01,4.41,0.01,8.81,0,13.22c-0.01,1.84-0.03,1.87-1.88,1.87c-9.57,0.01-19.15,0-28.72,0.01c-0.53,0-1.07,0.04-1.6-0.01
		c-0.94-0.08-1.2,0.4-1.13,1.23c0.02,0.23,0,0.45,0,0.68c0,4.79-0.01,9.57,0,14.36c0.01,1.98,0.02,2,1.96,2c7.9,0.01,15.8,0,23.7,0
		c0.53,0,1.07,0.03,1.6,0c0.86-0.06,1.23,0.27,1.22,1.16c-0.02,4.86-0.02,9.73,0,14.59c0,0.85-0.27,1.28-1.18,1.21
		c-0.53-0.04-1.06,0-1.59,0c-7.98,0-15.96-0.01-23.93,0c-1.74,0-1.77,0.03-1.78,1.73c-0.02,4.94-0.01,9.88,0,14.82
		c0,1.7,0.03,1.72,1.76,1.72c9.42,0.01,18.84,0,28.26,0c0.53,0,1.06-0.01,1.6,0c1.65,0.04,1.69,0.04,1.7,1.6
		c0.02,4.63-0.03,9.27,0.03,13.9c0.02,1.23-0.44,1.64-1.58,1.55c-0.53-0.04-1.06-0.01-1.59-0.01c-15.5,0-31,0-46.5,0
		c-0.15,0-0.3,0-0.46,0c-2.97,0.01-2.62,0.08-2.62-2.54c-0.01-8.43,0-16.87,0-25.3C1064.64,386.51,1064.64,381.19,1064.64,375.87z"
		/>
	<path style="fill-rule:evenodd;clip-rule:evenodd;fill:#CF122E;" d="M615.7,375.84c0-13.45,0-26.9,0-40.35c0-0.46-0.01-0.91,0-1.37
		c0.02-1.92,0.02-1.93,2.02-1.93c12.16,0,24.32,0,36.48,0c4.1,0,8.21-0.01,12.31,0.01c1.74,0.01,1.77,0.03,1.78,1.72
		c0.01,4.48,0.02,8.97,0,13.45c-0.01,1.72-0.04,1.75-1.76,1.76c-9.27,0.01-18.54,0-27.81,0c-0.68,0-1.37-0.01-2.05,0
		c-1.7,0.03-1.73,0.04-1.73,1.77c-0.01,4.79-0.01,9.58,0,14.36c0,2.12,0.01,2.13,2.07,2.14c7.9,0.01,15.81,0,23.71,0
		c0.53,0,1.07,0.03,1.6,0c0.86-0.05,1.23,0.29,1.23,1.18c-0.02,4.86-0.03,9.73,0,14.59c0.01,1.11-0.6,1.19-1.46,1.19
		c-2.96-0.02-5.93-0.01-8.89-0.01c-5.47,0-10.94-0.01-16.42,0c-1.82,0-1.84,0.03-1.84,1.9c-0.01,4.79,0,9.57-0.01,14.36
		c0,2.05-0.15,2,1.96,2c9.2,0,18.39,0,27.58,0c0.53,0,1.06,0,1.6,0c2.25,0.01,2.23-0.28,2.22,2.21c-0.01,4.33,0.01,8.66-0.01,12.99
		c-0.01,1.79-0.03,1.83-1.69,1.83c-16.42,0.01-32.83,0.01-49.24,0c-1.64,0-1.65-0.04-1.65-2.1
		C615.7,403.65,615.7,389.74,615.7,375.84z"/>
	<path style="fill-rule:evenodd;clip-rule:evenodd;fill:#CF122E;" d="M528.29,249.93c0-13.75-0.01-27.5,0.01-41.25
		c0-2.39-0.49-2.48,2.44-2.48c11.7,0.01,23.4-0.15,35.09,0.05c10.78,0.18,18.84,5.29,23.3,15.07c4.45,9.76,3.48,19.32-3.36,27.81
		c-5.08,6.31-12.05,9.02-20.04,9.16c-5.39,0.09-10.79,0.01-16.18,0.02c-1.83,0-1.85,0.03-1.85,1.88c-0.01,10.33,0,20.66-0.01,30.99
		c0,2.57,0.3,2.5-2.42,2.5c-4.86-0.01-9.72,0-14.59,0c-2.77,0-2.39,0.06-2.39-2.51C528.28,277.43,528.29,263.68,528.29,249.93z
		 M547.69,232.68c0,2.73,0.04,5.46-0.02,8.19c-0.03,1.19,0.39,1.56,1.58,1.54c4.4-0.06,8.8,0,13.2-0.05
		c1.13-0.01,2.28-0.19,3.37-0.46c5.36-1.33,8.36-6.17,7.11-11.4c-0.96-4.04-4.54-7.03-9.15-7.21c-4.92-0.2-9.86-0.07-14.79-0.12
		c-0.98-0.01-1.34,0.32-1.32,1.31C547.72,227.22,547.69,229.95,547.69,232.68z"/>
	<path style="fill-rule:evenodd;clip-rule:evenodd;fill:#CF122E;" d="M832.18,229.56c-1.68-1.59-3.29-3.2-5.22-4.44
		c-3.42-2.2-7.07-3.5-11.21-2.75c-2.81,0.51-4.99,1.86-5.84,4.74c-0.85,2.86-0.22,5.4,1.91,7.53c1.48,1.48,3.28,2.44,5.16,3.28
		c3.54,1.59,7.25,2.71,10.87,4.06c3.49,1.3,6.92,2.74,10.1,4.7c7.5,4.63,11.27,11.4,11.78,20.15c0.85,14.35-8.12,23.15-19.16,26.48
		c-15.68,4.73-33.07-1.23-42.15-14.48c-2.34-3.41-2.34-3.41,1.17-5.6c3.67-2.29,7.34-4.59,11.02-6.87c1.53-0.95,1.45-1.23,2.51,0.6
		c2.98,5.16,7.34,8.44,13.25,9.47c3.03,0.53,6.06,0.47,8.97-0.68c5.77-2.27,6.94-8.67,2.36-12.83c-1.54-1.4-3.37-2.32-5.25-3.16
		c-3.54-1.57-7.25-2.7-10.88-4.05c-3.71-1.38-7.35-2.88-10.71-5c-8.24-5.21-11.39-12.84-10.66-22.35
		c0.95-12.28,9.5-20.58,21.61-22.74c12.04-2.14,22.51,1.38,31.39,9.73c0.39,0.36,0.71,0.79,1.11,1.15c0.77,0.69,0.57,1.21-0.12,1.86
		c-3.76,3.54-7.48,7.13-11.22,10.69C832.76,229.26,832.47,229.38,832.18,229.56z"/>
	<path style="fill-rule:evenodd;clip-rule:evenodd;fill:#CF122E;" d="M735.27,343.48c-4.22,4.03-8.39,8.01-12.59,12.02
		c-0.99-0.42-1.54-1.29-2.26-1.93c-3.3-2.94-6.92-5.21-11.5-5.44c-1.45-0.07-2.88,0.02-4.27,0.5c-4.74,1.61-6.42,7.14-3.35,11.11
		c1.04,1.35,2.41,2.3,3.89,3.11c2.48,1.35,5.12,2.29,7.77,3.23c3.22,1.14,6.45,2.24,9.58,3.61c2.37,1.04,4.66,2.23,6.8,3.69
		c6.53,4.45,9.96,10.66,10.53,18.51c0.25,3.36,0.13,6.68-0.79,9.94c-1.81,6.4-5.74,11.14-11.43,14.45c-6.45,3.77-13.51,5-20.85,4.42
		c-10.38-0.83-19.11-5.13-25.96-13.05c-1.3-1.5-2.43-3.11-3.43-4.82c-0.9-1.54-0.91-1.57,0.52-2.47c4.37-2.75,8.76-5.47,13.15-8.19
		c1.32-0.82,1.37-0.81,2.17,0.6c2.96,5.16,7.27,8.54,13.18,9.58c3.48,0.61,6.98,0.58,10.23-1.14c2.96-1.56,4.37-4.24,3.98-7.54
		c-0.25-2.08-1.35-3.67-2.91-4.99c-1.82-1.54-3.94-2.58-6.14-3.42c-3.68-1.41-7.41-2.71-11.11-4.1c-3.78-1.41-7.44-3.06-10.74-5.43
		c-5.89-4.21-8.9-9.92-9.32-17.16c-0.86-14.79,8.33-24.74,21.94-27.04c12.52-2.11,23.22,1.79,32.09,10.82
		c0.16,0.16,0.31,0.33,0.45,0.51C735,342.96,735.06,343.1,735.27,343.48z"/>
	<path style="fill-rule:evenodd;clip-rule:evenodd;fill:#FEFEFE;" d="M681.89,151.29c0-0.81,0-1.62,0-2.44c0-21.96,0-43.93,0-65.89
		c0-2.94-0.3-2.72,2.67-2.72c1.6,0,3.19-0.02,4.79,0.01c1.69,0.03,1.7,0.05,1.74,1.82c0.01,0.3,0,0.61,0,0.91
		c0,27.36,0,54.72-0.01,82.08c0,3.02,0.33,2.71-2.66,2.68c-2.04-0.02-4.36,0.69-6.04-0.31c-1.58-0.93-2.52-2.96-3.7-4.54
		c-16.15-21.51-32.3-43.02-48.44-64.53c-0.41-0.54-0.83-1.07-1.36-1.74c-0.59,0.85-0.36,1.68-0.36,2.44
		c-0.02,21.89-0.01,43.77-0.02,65.66c0,3.42,0.46,3.01-3.02,3.04c-1.75,0.02-3.5-0.02-5.24,0.01c-0.87,0.01-1.27-0.33-1.21-1.21
		c0.03-0.45,0-0.91,0-1.37c0-27.44,0-54.87,0-82.31c0-0.38,0.03-0.76-0.01-1.14c-0.09-1.03,0.25-1.62,1.39-1.5
		c0.23,0.02,0.46,0,0.68,0c2.2,0.03,4.63-0.5,6.54,0.26c1.93,0.77,2.85,3.23,4.17,4.98c16.01,21.24,31.99,42.49,47.98,63.74
		c0.55,0.73,1.11,1.44,1.67,2.15C681.6,151.35,681.75,151.32,681.89,151.29z"/>
	<path style="fill-rule:evenodd;clip-rule:evenodd;fill:#CF122E;" d="M1015.04,384.53c0-10.94,0-21.88,0-32.82
		c0-2.93-0.04-2.47-2.44-2.48c-5.93-0.01-11.85-0.01-17.78,0c-2.09,0-1.96,0.06-1.96-2.01c0-4.33,0-8.66,0-12.99
		c0-2.17-0.17-2.04,2.15-2.05c16.56,0,33.13,0,49.69,0c3.27,0,6.53-0.01,9.8,0.01c1.68,0.01,1.7,0.04,1.71,1.82
		c0.01,4.48,0.01,8.96,0,13.45c-0.01,1.73-0.03,1.76-1.75,1.76c-5.85,0.01-11.7-0.01-17.55,0.01c-2.9,0.01-2.75-0.54-2.75,2.85
		c0,21.5,0.01,43-0.01,64.5c0,3.44,0.4,3.03-3.02,3.04c-4.63,0.02-9.27,0.01-13.9,0c-2.18,0-2.19-0.02-2.19-2.27
		C1015.04,406.41,1015.04,395.47,1015.04,384.53z"/>
	<path style="fill-rule:evenodd;clip-rule:evenodd;fill:#FEFEFE;" d="M931.81,128.18c8.45,13.09,16.85,26.12,25.53,39.57
		c-3.71,0-6.87,0-10.03,0c-0.97,0-1.2-0.82-1.58-1.43c-2.51-3.98-5.02-7.97-7.52-11.96c-5.08-8.11-10.19-16.2-15.21-24.34
		c-0.78-1.26-1.61-1.75-3.1-1.7c-3.95,0.11-7.9,0.04-11.85,0.04c-2.91,0-2.63-0.15-2.63,2.53c-0.01,11.09,0,22.18,0,33.27
		c0,0.46,0,0.91,0,1.37c-0.01,2.37,0.16,2.23-2.21,2.23c-1.82,0-3.65,0.02-5.47-0.01c-1.57-0.03-1.58-0.05-1.62-1.69
		c-0.01-0.38,0-0.76,0-1.14c0-27.27,0-54.54,0-81.81c0-3.14-0.28-2.87,2.75-2.87c9.5-0.01,18.99-0.1,28.48,0.03
		c9.11,0.12,16.3,4.03,20.98,11.9c8.32,13.97,1.27,31.42-14.67,35.3C933.15,127.6,932.6,127.58,931.81,128.18z M905.42,104.54
		c0,4.41,0.01,8.81-0.01,13.22c0,0.92,0.05,1.61,1.3,1.6c7.22-0.05,14.46,0.33,21.65-0.15c11.12-0.75,15.92-10.31,13.36-19.2
		c-1.74-6.04-7.4-10.18-14.11-10.29c-6.84-0.12-13.68-0.05-20.52-0.03c-1.63,0-1.67,0.04-1.67,1.64
		C905.41,95.73,905.42,100.13,905.42,104.54z"/>
	<path style="fill-rule:evenodd;clip-rule:evenodd;fill:#FEFEFE;" d="M529.97,111.71c0-9.58,0-19.15,0-28.73c0-0.53,0.01-1.06,0-1.6
		c-0.02-0.73,0.26-1.14,1.05-1.14c2.36,0.01,4.71,0.02,7.07-0.01c0.9-0.01,1.22,0.42,1.19,1.26c-0.02,0.61,0,1.22,0,1.82
		c0,17.78,0,35.57,0,53.35c0,3.85,0.63,7.57,2.46,11.01c3.1,5.86,7.99,9.5,14.37,11.01c8.29,1.97,16.04,0.77,22.75-4.75
		c4.49-3.7,6.91-8.58,7.34-14.41c0.09-1.21,0.1-2.43,0.1-3.64c0.01-17.63,0.01-35.26,0-52.9c0-3.06-0.04-2.74,2.69-2.75
		c1.82-0.01,3.65,0.02,5.47,0c0.84-0.01,1.28,0.3,1.24,1.19c-0.03,0.61,0,1.22,0,1.82c0,18.24-0.21,36.48,0.06,54.72
		c0.22,14.55-8.89,25.71-21.96,29.42c-9.25,2.63-18.41,2.27-27.1-1.97c-10.79-5.27-16.52-14.04-16.72-26.12
		C529.85,130.1,529.97,120.91,529.97,111.71z"/>
	<path style="fill-rule:evenodd;clip-rule:evenodd;fill:#FEFEFE;" d="M1136.28,123.88c0-13.52,0-27.05,0-40.58
		c0-0.53,0.03-1.06,0-1.6c-0.06-1.06,0.38-1.48,1.47-1.48c14.97,0.02,29.94,0.02,44.91,0c1.09,0,1.49,0.38,1.47,1.46
		c-0.05,2.05-0.05,4.1,0,6.15c0.03,1.03-0.25,1.61-1.4,1.49c-0.53-0.05-1.06-0.01-1.6-0.01c-10.87,0-21.73,0-32.6,0
		c-0.61,0-1.22,0.01-1.82,0.01c-0.63,0-1,0.26-1.01,0.93c0,0.46-0.01,0.91-0.01,1.37c0,8.51,0,17.02,0,25.53
		c0,0.38,0.02,0.76,0,1.14c-0.04,0.76,0.28,1.13,1.06,1.11c0.61-0.02,1.22,0.01,1.82,0.01c9.35,0,18.69,0,28.04,0
		c0.53,0,1.06,0.02,1.6,0c0.76-0.02,1.11,0.32,1.1,1.09c-0.01,2.36-0.01,4.71-0.01,7.07c0,0.66-0.34,0.96-0.99,0.96
		c-0.61,0-1.21,0.01-1.82,0.01c-9.35,0-18.69,0-28.04,0c-0.53,0-1.06,0.03-1.6,0c-0.9-0.05-1.22,0.41-1.17,1.25
		c0.03,0.53,0,1.06,0,1.6c0,8.05-0.02,16.11,0.01,24.16c0.01,3.53-0.5,3.07,3.19,3.08c10.71,0.02,21.43,0.01,32.14,0.01
		c0.53,0,1.07,0.04,1.59-0.01c1.04-0.09,1.53,0.28,1.51,1.4c-0.06,2.13-0.04,4.26,0,6.38c0.02,0.95-0.29,1.43-1.3,1.35
		c-0.45-0.04-0.91,0-1.37,0c-14.21,0-28.42,0-42.63,0c-2.7,0-2.54,0.29-2.54-2.62C1136.28,151.38,1136.28,137.63,1136.28,123.88z"/>
	<path style="fill-rule:evenodd;clip-rule:evenodd;fill:#FEFEFE;" d="M826.34,123.97c0-13.37,0-26.74,0-40.11c0-0.46,0-0.91,0-1.37
		c0.02-2.22,0.02-2.24,2.25-2.24c14.43,0,28.87,0,43.3,0c0.46,0,0.91,0,1.37,0.02c0.65,0.03,0.95,0.4,0.95,1.03
		c0,2.36,0,4.71,0.01,7.07c0,0.67-0.35,0.95-0.99,0.95c-0.61,0-1.22,0.01-1.82,0.01c-11.09,0-22.18,0-33.27,0
		c-2.66,0-2.47-0.2-2.47,2.45c0,8.51,0,17.02,0,25.53c0,2.09,0.02,2.11,2.12,2.11c9.57,0.01,19.14,0,28.72,0c0.53,0,1.07,0.03,1.6,0
		c0.9-0.04,1.19,0.41,1.18,1.25c-0.03,2.13-0.07,4.26,0.02,6.38c0.05,1.27-0.51,1.53-1.62,1.52c-3.8-0.04-7.6-0.02-11.4-0.02
		c-6.15,0-12.31,0-18.46,0c-2.13,0-2.15,0.02-2.15,2.08c-0.01,8.58-0.01,17.17,0,25.75c0,2.23,0.01,2.25,2.21,2.25
		c11.09,0,22.18,0,33.28,0c0.53,0,1.07,0.04,1.59-0.01c1.03-0.08,1.54,0.26,1.51,1.4c-0.06,2.12-0.04,4.25-0.01,6.38
		c0.02,0.95-0.31,1.43-1.31,1.36c-0.45-0.03-0.91,0-1.37,0c-14.21,0-28.41,0-42.62,0c-0.38,0-0.76-0.03-1.14,0
		c-1.05,0.1-1.54-0.29-1.48-1.41c0.07-1.21,0.01-2.43,0.01-3.64C826.34,149.79,826.34,136.88,826.34,123.97z"/>
	<path style="fill-rule:evenodd;clip-rule:evenodd;fill:#FEFEFE;" d="M973.8,146.18c0.6,1.17,1.05,2.14,1.57,3.05
		c3.57,6.21,9.08,9.46,16.08,10.18c3.97,0.41,7.86-0.06,11.6-1.67c9.81-4.23,10.83-16.59,4.08-22.67c-1.88-1.7-3.95-3.07-6.18-4.24
		c-3.36-1.77-6.9-3.16-10.4-4.63c-3.57-1.5-7.13-3.04-10.44-5.08c-4.15-2.57-7.68-5.73-9.6-10.35c-4.35-10.51-0.9-26.88,15.97-30.84
		c10.46-2.45,19.86,0.22,27.81,7.58c0.56,0.51,1.04,1.1,1.56,1.66c0.49,0.51,0.62,1.01,0,1.53c-1.98,1.66-3.95,3.33-5.93,4.99
		c-0.89,0.75-1.18-0.16-1.57-0.63c-2.63-3.15-5.98-5.12-9.96-6.01c-3.93-0.89-7.82-0.74-11.67,0.59
		c-9.96,3.42-10.93,15.5-4.11,21.38c2.21,1.9,4.68,3.39,7.32,4.57c3.6,1.61,7.26,3.1,10.88,4.68c4.39,1.92,8.69,4,12.37,7.17
		c4.88,4.21,7.33,9.54,7.58,15.96c0.27,6.85-1.56,12.93-6.45,17.88c-3.86,3.92-8.67,6.07-14.02,7.07
		c-7.98,1.48-15.58,0.41-22.7-3.55c-5.12-2.85-9-6.93-11.58-12.21c-0.7-1.43-0.69-1.46,0.7-2.28
		C969.01,148.96,971.31,147.64,973.8,146.18z"/>
	<path style="fill-rule:evenodd;clip-rule:evenodd;fill:#CF122E;" d="M774.89,250.23c0,13.45,0,26.9,0,40.35
		c0,0.53-0.06,1.07,0.01,1.59c0.16,1.26-0.45,1.53-1.58,1.53c-5.4-0.04-10.79,0-16.19-0.02c-1.56-0.01-1.59-0.05-1.6-1.71
		c-0.02-4.48-0.01-8.97-0.01-13.45c0-23.18,0-46.36,0-69.53c0-3.12-0.29-2.76,2.84-2.77c4.64-0.01,9.27,0,13.91,0
		c3.1,0,2.61-0.02,2.61,2.53C774.9,222.57,774.89,236.4,774.89,250.23z"/>
	<path style="fill-rule:evenodd;clip-rule:evenodd;fill:#FEFEFE;" d="M738.8,80.25c3.36,0,6.38,0.03,9.41-0.01
		c1.2-0.02,1.28,0.9,1.54,1.64c1.58,4.43,3.12,8.87,4.68,13.31c6.82,19.4,13.64,38.8,20.46,58.2c0.2,0.57,0.42,1.13,0.65,1.73
		c0.8-0.59,0.85-1.48,1.11-2.24c8.11-23.05,16.18-46.11,24.31-69.15c1.5-4.24,0.46-3.4,4.79-3.48c2.11-0.04,4.23-0.01,6.27-0.01
		c0.38,0.92-0.1,1.52-0.32,2.13c-10.05,27.83-20.13,55.66-30.2,83.48c-0.69,1.89-0.69,1.9-2.72,1.91c-2.2,0.01-4.41-0.08-6.61,0.03
		c-1.38,0.07-1.98-0.44-2.43-1.72c-3.2-9.01-6.5-17.98-9.75-26.98c-6.79-18.77-13.56-37.54-20.34-56.31
		C739.41,82.08,739.18,81.37,738.8,80.25z"/>
	<path style="fill-rule:evenodd;clip-rule:evenodd;fill:#FEFEFE;" d="M1087.48,128.67c0-12,0-24,0-36c0-0.53-0.04-1.07,0-1.59
		c0.1-1.12-0.46-1.42-1.49-1.41c-3.49,0.04-6.99,0.01-10.48,0.01c-3.49,0-6.99,0.02-10.48-0.01c-1.64-0.01-1.68-0.05-1.71-1.65
		c-0.04-2.05,0.02-4.1-0.02-6.15c-0.02-1.11,0.3-1.77,1.54-1.63c0.3,0.03,0.61,0,0.91,0c17.62,0,35.24,0,52.86,0
		c2.63,0,2.47-0.18,2.47,2.46c0,1.75,0.02,3.49-0.01,5.24c-0.02,1.7-0.04,1.73-1.81,1.73c-6.53,0.01-13.06,0-19.6,0.01
		c-3.12,0-2.75-0.29-2.75,2.84c-0.01,24.15,0,48.3-0.01,72.45c0,3.11,0.37,2.75-2.81,2.78c-1.75,0.01-3.5-0.03-5.24,0.01
		c-0.93,0.02-1.45-0.26-1.39-1.28c0.04-0.53,0-1.06,0-1.59C1087.48,152.82,1087.48,140.74,1087.48,128.67z"/>
	<path style="fill-rule:evenodd;clip-rule:evenodd;fill:#FEFEFE;" d="M715.64,124.16c0-13.51,0-27.03,0-40.54c0-0.38,0-0.76,0-1.14
		c0.01-2.22,0.01-2.22,2.24-2.23c1.9-0.01,3.8,0.05,5.69-0.02c1.22-0.05,1.65,0.45,1.53,1.6c-0.04,0.38-0.01,0.76-0.01,1.14
		c0,27.33,0,54.67,0,82c0,3.1,0.32,2.77-2.82,2.79c-1.75,0.01-3.49-0.05-5.24,0.02c-1.11,0.04-1.51-0.42-1.41-1.47
		c0.05-0.53,0.01-1.06,0.01-1.59C715.64,151.19,715.64,137.68,715.64,124.16z"/>
	<path style="fill-rule:evenodd;clip-rule:evenodd;fill:#FEFEFE;" d="M1048.27,124.14c0,13.53,0,27.06,0,40.58
		c0,0.61-0.03,1.22,0,1.82c0.04,0.86-0.34,1.23-1.21,1.22c-2.36-0.03-4.71-0.02-7.07,0c-0.79,0.01-1.09-0.37-1.06-1.11
		c0.02-0.53,0-1.06,0-1.6c0-27.36,0-54.72,0-82.08c0-2.96-0.29-2.71,2.66-2.72c1.75-0.01,3.5,0.04,5.24-0.01
		c1.1-0.03,1.51,0.45,1.44,1.5c-0.04,0.53-0.01,1.06-0.01,1.6C1048.27,96.93,1048.27,110.53,1048.27,124.14z"/>
	<path style="fill-rule:evenodd;clip-rule:evenodd;fill:#FEFEFE;" d="M1154.67,75.46c0.97-1.78,1.72-3.16,2.47-4.54
		c1.38-2.52,2.76-5.04,4.13-7.57c0.41-0.76,0.83-1.38,1.87-1.36c2.93,0.05,5.87,0.02,8.72,0.02c0.47,0.79-0.07,1.15-0.35,1.54
		c-2.6,3.54-5.25,7.04-7.82,10.59c-0.69,0.95-1.43,1.41-2.63,1.35C1159.09,75.38,1157.12,75.46,1154.67,75.46z"/>
	<path style="fill-rule:evenodd;clip-rule:evenodd;fill:#FFFEFE;" d="M469.84,250.19c-0.12,113.23-92.3,205.93-206.74,205.12
		C148.64,454.51,57.67,360.23,59.35,247c1.66-112.21,94.18-203.3,207.4-202.16C377.95,45.97,469.78,136.71,469.84,250.19z
		 M264.47,58.7C160.12,58.74,74.4,142.92,73.21,247.79c-1.22,107.67,86.04,193.26,190.56,193.69
		c104.37,0.43,192.17-83.99,192.17-191.4C455.95,143.2,368.92,58.58,264.47,58.7z"/>
	<path style="fill-rule:evenodd;clip-rule:evenodd;fill:#CF122E;" d="M264.47,58.7c104.45-0.12,191.48,84.5,191.48,191.39
		c0,107.4-87.8,191.82-192.17,191.4c-104.53-0.43-191.79-86.02-190.56-193.69C74.4,142.92,160.12,58.74,264.47,58.7z M264.42,368.01
		c-0.28-0.31-0.49-0.52-0.68-0.76c-7.53-9.12-17.18-13.69-29.05-13.59c-10.33,0.08-20.67,0.02-31.01,0.01
		c-3.15,0-2.82,0.35-2.82-2.77c-0.01-31.84,0-63.69,0-95.53c0-0.68-0.02-1.37,0-2.05c0.01-0.67-0.3-0.94-0.96-0.94
		c-3.95,0.01-7.9,0.01-11.85,0c-0.65,0-0.99,0.26-0.97,0.94c0.01,0.53,0,1.06,0,1.6c0,7.45,0,14.9,0,22.34
		c0,2.07-0.02,2.08-2.13,2.08c-6.46,0.01-12.92-0.01-19.38,0c-2.94,0-2.58-0.26-2.58,2.53c-0.01,35.64-0.01,71.29,0,106.93
		c0,2.95-0.33,2.66,2.7,2.66c21.13,0.01,42.25,0,63.38,0c2.84,0,2.84,0,3.55,2.71c6.27,24.13,36.03,32.89,54.35,16
		c5-4.61,8.26-10.25,9.84-16.86c0.44-1.83,0.46-1.82,2.36-1.84c0.46,0,0.91,0,1.37,0c20.9,0,41.8,0,62.7,0
		c3.05,0,2.77,0.38,2.77-2.83c0.01-35.49,0-70.98,0-106.47c0-0.23,0-0.46,0-0.68c-0.01-2.26,0.18-2.13-2.05-2.13
		c-5.02,0-10.03,0-15.05,0c-1.82,0-3.65-0.04-5.47,0.01c-0.99,0.03-1.4-0.34-1.32-1.32c0.04-0.45,0.01-0.91,0.01-1.37
		c0-7.3,0.01-14.59,0-21.89c0-2.54,0.31-2.4-2.49-2.41c-2.81,0-5.62-0.02-8.44,0c-3.3,0.03-2.95-0.44-2.96,2.87
		c-0.01,32-0.01,63.99,0,95.98c0,2.79-0.01,2.44-2.49,2.44c-10.79,0.01-21.58-0.04-32.38,0.01c-11.08,0.05-20.13,4.51-27.37,12.81
		C265.56,366.99,265.28,367.67,264.42,368.01z M216.89,199.15c-0.02,0.41-0.07,0.58-0.03,0.7c0.15,0.43,0.32,0.85,0.51,1.26
		c2.9,6.3,6.91,11.78,12.15,16.33c7.24,6.29,15.59,10.17,25.13,11.44c3,0.4,3,0.41,3,3.56c0,8.36,0,16.72,0,25.08
		c0,0.65,0,1.31,0,1.93c-0.94,0.09-1.32-0.47-1.79-0.79c-5.81-3.93-12.18-6.17-19.21-6.26c-7.07-0.09-14.14-0.01-21.2-0.07
		c-1.21-0.01-1.55,0.4-1.53,1.56c0.06,3.42,0.01,6.84,0.02,10.26c0.01,1.99,0.02,2.01,1.95,2.01c6.38,0.01,12.77-0.02,19.15,0.01
		c12.77,0.05,22.36,9.55,22.49,22.29c0.07,6.99,0.1,13.98,0.11,20.97c0.02,10.11,0.01,20.22,0.01,30.33c0,2.05,0.06,4.11-0.02,6.16
		c-0.05,1.22,0.42,1.54,1.57,1.52c3.49-0.06,6.99-0.01,10.49-0.03c1.74-0.01,1.74-0.03,1.78-1.73c0.01-0.46,0-0.91,0-1.37
		c0.01-18.62,0.03-37.24,0.03-55.86c0-2.46,0.37-4.84,1.14-7.16c2.99-8.95,11.24-15.01,20.7-15.11c6.61-0.07,13.22-0.01,19.84-0.02
		c2.06,0,2.07-0.02,2.07-2.13c0.01-3.27,0.01-6.54,0-9.8c-0.01-1.84-0.03-1.87-1.88-1.87c-6.69-0.01-13.38-0.01-20.06,0
		c-7.36,0.02-14.05,2.18-20.12,6.31c-0.47,0.32-0.86,0.89-1.57,0.76c-0.28-0.75-0.13-1.51-0.13-2.25
		c-0.01-8.28-0.01-16.57-0.01-24.85c0-3.04,0.01-2.99,3.09-3.47c17.12-2.67,29.38-11.93,37.05-27.39c0.33-0.66,0.78-1.31,0.7-2.32
		c-4.77,0-9.53,0.01-14.29-0.01c-0.85-0.01-1.18,0.53-1.56,1.1c-1.39,2.1-3,4.01-4.83,5.75c-5.1,4.86-11.14,7.84-18.06,9.06
		c-2.04,0.36-2.09,0.29-2.09-1.68c-0.01-9.12-0.07-18.24,0.02-27.36c0.1-10.06,6.95-18.65,16.64-21.13
		c2.46-0.63,4.95-0.77,7.46-0.69c0.98,0.03,1.54-0.13,1.51-1.34c-0.07-3.72-0.05-7.45-0.01-11.17c0.01-0.96-0.3-1.29-1.3-1.33
		c-8.07-0.32-15.5,1.6-22.25,6.07c-0.6,0.4-1.1,1.02-2.07,1.09c0-0.87,0-1.61,0-2.35c0-11.7,0-23.41,0-35.11c0-0.53-0.02-1.06,0-1.6
		c0.02-0.65-0.25-0.98-0.93-0.98c-3.95,0-7.9,0.01-11.86-0.01c-0.8,0-1.07,0.37-1.03,1.11c0.03,0.53,0,1.06,0,1.6
		c0,11.78,0,23.56,0,35.34c0,0.65,0,1.31,0,1.91c-0.86,0.15-1.19-0.35-1.6-0.63c-6.75-4.63-14.23-6.68-22.38-6.41
		c-1.61,0.05-1.65,0.05-1.66,1.65c-0.03,3.57,0.02,7.14-0.02,10.72c-0.01,1.06,0.33,1.51,1.43,1.46c2.28-0.1,4.56,0.04,6.8,0.54
		c10.29,2.33,17.24,10.88,17.4,21.69c0.14,9.04,0.04,18.09,0.02,27.13c0,1.7-0.11,1.8-1.86,1.52c-2.86-0.45-5.63-1.25-8.28-2.43
		c-5.98-2.65-10.83-6.67-14.56-12.05c-0.5-0.72-0.84-1.5-2.05-1.48C226.26,199.2,221.63,199.15,216.89,199.15z M180.37,117.79
		c-1.02-0.42-1.7-0.29-2.35-0.29c-4.79-0.01-9.57,0.04-14.36-0.03c-1.45-0.02-2.57,0.39-3.71,1.3
		c-40.62,32.39-64.76,82.28-63.29,135.61c0.33,12.04,1.83,23.91,4.72,35.6c7.13,28.86,21.02,54.05,41.4,75.66
		c0.44,0.47,0.78,1.11,1.78,1.22c0-0.55,0-1.05,0-1.56c0-4.18-0.05-8.36,0.03-12.54c0.02-1.32-0.43-2.28-1.24-3.27
		c-20.25-24.81-31.97-53.18-35.02-85.05c-1.46-15.29-0.65-30.5,2.51-45.56c7.75-36.94,26.45-67.2,55.62-91.06
		C170.82,124.25,175.42,121.03,180.37,117.79z M384.53,366.86c0.43-0.16,0.59-0.17,0.68-0.26c0.59-0.59,1.19-1.17,1.75-1.79
		c33.72-37.04,48.76-80.49,44.64-130.47c-1.38-16.7-5.46-32.76-11.89-48.22c-11.11-26.72-28.04-49.06-50.52-67.24
		c-1.26-1.02-2.52-1.45-4.13-1.42c-4.86,0.09-9.73,0.02-14.59,0.05c-0.54,0-1.19-0.28-1.69,0.39c0.73,0.49,1.43,0.94,2.11,1.41
		c40.45,27.82,63.86,66.01,69.57,114.82c1.59,13.56,1.03,27.14-1.14,40.65c-3.68,22.93-12.08,43.97-25.08,63.19
		c-2.73,4.03-5.65,7.91-8.74,11.67c-0.53,0.64-1,1.25-0.99,2.2C384.55,356.79,384.53,361.72,384.53,366.86z M353.89,245.21
		c2.93,2.93,5.95,5.92,8.94,8.93c0.46,0.46,0.84,0.58,1.31,0.03c0.34-0.41,0.74-0.76,1.09-1.16c10.04-11.54,13.66-24.87,10.64-39.82
		c-4.14-20.55-22.76-36.82-46.21-36.18c-1.2,0.03-1.56,0.45-1.54,1.61c0.06,3.49,0.01,6.99,0.03,10.48c0.01,1.79,0.03,1.83,1.95,1.8
		c2.59-0.04,5.16,0.11,7.7,0.64c23.81,5.02,33.33,33.79,17.23,52.06C354.64,244.04,354.1,244.38,353.89,245.21z M165.33,254.5
		c3.28-3.28,6.49-6.49,9.76-9.76c-0.37-0.43-0.91-1.05-1.45-1.69c-14.71-17.29-6.82-44.15,14.9-50.77c3.53-1.08,7.13-1.52,10.8-1.35
		c1.15,0.05,1.63-0.29,1.61-1.51c-0.06-3.65-0.05-7.3,0-10.94c0.01-1.07-0.33-1.47-1.43-1.47c-3.5,0.02-6.99,0.16-10.43,0.85
		c-28.27,5.62-44.33,35.51-33.39,62.15C157.96,245.53,161.22,250.42,165.33,254.5z M194.07,164.17c1.29,0,2.58,0,3.87,0
		c2.95,0,2.95,0,2.98-3.04c0.13-13.59,9.2-25.32,22.28-28.81c2.51-0.67,5.07-0.96,7.65-1.02c1.01-0.02,1.3-0.41,1.29-1.36
		c-0.04-3.64-0.06-7.29,0.01-10.93c0.02-1.21-0.41-1.57-1.58-1.54c-3.5,0.06-6.95,0.47-10.35,1.32
		c-19.99,5.02-33.79,23.28-33.13,43.82c0.04,1.15,0.31,1.64,1.53,1.58C190.42,164.11,192.25,164.17,194.07,164.17z M297.01,124.36
		c0,1.14-0.05,2.28,0.01,3.42c0.06,1.12-0.51,2.51,0.32,3.26c0.58,0.52,1.87,0.25,2.85,0.35c0.45,0.04,0.9,0.12,1.36,0.17
		c13.12,1.42,23.78,11.36,26.11,24.28c0.41,2.26,0.5,4.53,0.42,6.8c-0.04,1.22,0.41,1.57,1.57,1.56c3.64-0.05,7.29-0.04,10.93,0
		c1.05,0.01,1.51-0.31,1.48-1.43c-0.05-1.82-0.05-3.64-0.25-5.45c-1.81-16.41-10.21-28.25-24.88-35.63
		c-5.7-2.87-11.86-4.15-18.25-4.18c-1.6-0.01-1.62,0.01-1.65,1.62C296.99,120.87,297.01,122.61,297.01,124.36z M283.32,104.68
		c1.82,0,3.65-0.06,5.46,0.02c1.16,0.05,1.49-0.44,1.35-1.48c-0.04-0.3-0.02-0.61-0.05-0.91c-1.53-16.89-18.91-27.71-34.73-21.64
		c-9.31,3.57-16.04,12.71-16.36,22.2c-0.06,1.77-0.06,1.8,1.68,1.81c3.34,0.02,6.68,0.01,10.02,0c1.83,0,1.83-0.01,2.18-1.88
		c1.33-7.14,8.19-11.54,14.97-9.44c4.69,1.45,7.47,4.72,8.29,9.59c0.28,1.69,0.29,1.71,1.94,1.72
		C279.82,104.69,281.57,104.68,283.32,104.68z"/>
	<path style="fill-rule:evenodd;clip-rule:evenodd;fill:#FFFEFE;" d="M264.42,368.01c0.86-0.34,1.13-1.02,1.57-1.52
		c7.24-8.3,16.29-12.75,27.37-12.81c10.79-0.05,21.58-0.01,32.38-0.01c2.48,0,2.49,0.35,2.49-2.44c0-31.99-0.01-63.99,0-95.98
		c0-3.3-0.34-2.84,2.96-2.87c2.81-0.02,5.62-0.01,8.44,0c2.81,0,2.49-0.14,2.49,2.41c0.01,7.3,0,14.59,0,21.89
		c0,0.46,0.03,0.91-0.01,1.37c-0.08,0.98,0.33,1.35,1.32,1.32c1.82-0.05,3.65-0.01,5.47-0.01c5.02,0,10.03,0,15.05,0
		c2.23,0,2.04-0.13,2.05,2.13c0,0.23,0,0.46,0,0.68c0,35.49,0,70.98,0,106.47c0,3.2,0.28,2.83-2.77,2.83c-20.9,0.01-41.8,0-62.7,0
		c-0.46,0-0.91,0-1.37,0c-1.9,0.02-1.93,0.01-2.36,1.84c-1.58,6.61-4.84,12.26-9.84,16.86c-18.33,16.89-48.08,8.13-54.35-16
		c-0.7-2.71-0.7-2.71-3.55-2.71c-21.13,0-42.26,0-63.38,0c-3.03,0-2.7,0.29-2.7-2.66c-0.01-35.64-0.01-71.29,0-106.93
		c0-2.79-0.37-2.52,2.58-2.53c6.46-0.01,12.92,0,19.38,0c2.11,0,2.13-0.02,2.13-2.08c0.01-7.45,0-14.9,0-22.34
		c0-0.53,0.02-1.06,0-1.6c-0.02-0.68,0.32-0.94,0.97-0.94c3.95,0.01,7.9,0.01,11.85,0c0.66,0,0.97,0.27,0.96,0.94
		c-0.01,0.68,0,1.37,0,2.05c0,31.84,0,63.69,0,95.53c0,3.12-0.33,2.76,2.82,2.77c10.34,0.01,20.67,0.07,31.01-0.01
		c11.88-0.09,21.52,4.47,29.05,13.59C263.94,367.48,264.15,367.7,264.42,368.01z M354.96,335.42c0-14.06,0-28.11,0-42.17
		c0-0.53-0.04-1.07,0.01-1.6c0.09-1.03-0.42-1.29-1.36-1.28c-2.89,0.04-5.77,0-8.66,0.02c-3.16,0.03-2.82-0.42-2.82,2.74
		c-0.01,23.78-0.01,47.57-0.01,71.35c0,0.61-0.04,1.22,0.01,1.82c0.06,0.92-0.4,1.21-1.24,1.16c-0.53-0.03-1.06,0-1.6,0
		c-15.04,0-30.09,0.01-45.13-0.01c-1.99,0-3.95,0.19-5.87,0.67c-9.28,2.34-15.77,9.98-16.75,19.65c-0.18,1.76-0.18,1.77-1.99,1.78
		c-3.34,0.01-6.69,0-10.03,0c-1.77,0-1.85,0.02-1.95-1.66c-0.06-1.06-0.22-2.12-0.46-3.15c-2.39-10.28-11.17-17.27-21.77-17.28
		c-15.43-0.02-30.85-0.01-46.27-0.01c-2.07,0-2,0.13-1.99-1.98c0-0.53,0-1.06,0-1.6c0-23.4,0-46.81,0-70.21c0-0.45,0-0.91,0-1.37
		c-0.03-1.89-0.03-1.91-1.84-1.92c-2.81-0.02-5.62-0.02-8.43,0c-2.84,0.02-2.66-0.38-2.66,2.71c0,28.19,0,56.38,0,84.57
		c0,2.93-0.31,2.59,2.52,2.59c20.52,0.01,41.03,0.01,61.55,0.01c0.99,0,1.98,0.07,2.96-0.02c1.24-0.1,1.54,0.44,1.53,1.59
		c-0.03,2.35-0.14,4.74,0.16,7.06c1.38,10.65,10.57,18.84,21.51,18.92c12.24,0.09,20.27-9.02,21.82-18.03
		c0.44-2.58,0.26-5.15,0.34-7.72c0.05-1.75,0.04-1.75,1.74-1.79c0.46-0.01,0.91,0,1.37,0c20.82,0,41.64,0,62.46,0
		c0.68,0,1.37-0.01,2.05-0.01c0.56,0,0.82-0.28,0.82-0.84c0-0.61,0.01-1.22,0.01-1.82C354.96,363.54,354.96,349.48,354.96,335.42z"
		/>
	<path style="fill-rule:evenodd;clip-rule:evenodd;fill:#FFFEFE;" d="M216.89,199.15c4.73,0,9.37,0.05,14-0.03
		c1.2-0.02,1.55,0.76,2.05,1.48c3.73,5.38,8.59,9.39,14.56,12.05c2.65,1.18,5.42,1.98,8.28,2.43c1.75,0.28,1.86,0.18,1.86-1.52
		c0.01-9.04,0.11-18.09-0.02-27.13c-0.16-10.81-7.11-19.36-17.4-21.69c-2.23-0.51-4.51-0.64-6.8-0.54c-1.11,0.05-1.45-0.4-1.43-1.46
		c0.04-3.57,0-7.14,0.02-10.72c0.01-1.6,0.05-1.6,1.66-1.65c8.15-0.27,15.63,1.78,22.38,6.41c0.41,0.28,0.74,0.78,1.6,0.63
		c0-0.6,0-1.26,0-1.91c0-11.78,0-23.56,0-35.34c0-0.53,0.03-1.07,0-1.6c-0.04-0.74,0.23-1.11,1.03-1.11
		c3.95,0.02,7.9,0.01,11.86,0.01c0.67,0,0.95,0.33,0.93,0.98c-0.02,0.53,0,1.06,0,1.6c0,11.7,0,23.41,0,35.11c0,0.74,0,1.49,0,2.35
		c0.97-0.06,1.47-0.69,2.07-1.09c6.75-4.47,14.19-6.4,22.25-6.07c1,0.04,1.31,0.37,1.3,1.33c-0.04,3.72-0.06,7.45,0.01,11.17
		c0.02,1.21-0.53,1.37-1.51,1.34c-2.51-0.08-5,0.07-7.46,0.69c-9.7,2.47-16.55,11.07-16.64,21.13c-0.09,9.12-0.03,18.24-0.02,27.36
		c0,1.97,0.06,2.04,2.09,1.68c6.92-1.21,12.96-4.2,18.06-9.06c1.82-1.74,3.43-3.65,4.83-5.75c0.38-0.57,0.71-1.11,1.56-1.1
		c4.76,0.03,9.52,0.01,14.29,0.01c0.08,1.01-0.37,1.66-0.7,2.32c-7.66,15.47-19.93,24.72-37.05,27.39
		c-3.08,0.48-3.09,0.43-3.09,3.47c0,8.28,0,16.57,0.01,24.85c0,0.74-0.14,1.5,0.13,2.25c0.72,0.13,1.1-0.44,1.57-0.76
		c6.07-4.13,12.76-6.29,20.12-6.31c6.69-0.01,13.38-0.01,20.06,0c1.85,0,1.87,0.03,1.88,1.87c0.01,3.27,0.01,6.54,0,9.8
		c-0.01,2.12-0.01,2.13-2.07,2.13c-6.61,0.01-13.23-0.05-19.84,0.02c-9.46,0.1-17.71,6.16-20.7,15.11c-0.78,2.32-1.14,4.7-1.14,7.16
		c0,18.62-0.01,37.24-0.03,55.86c0,0.46,0.01,0.91,0,1.37c-0.03,1.69-0.03,1.72-1.78,1.73c-3.5,0.02-6.99-0.03-10.49,0.03
		c-1.15,0.02-1.63-0.3-1.57-1.52c0.09-2.05,0.02-4.1,0.02-6.16c0-10.11,0.01-20.22-0.01-30.33c-0.01-6.99-0.04-13.98-0.11-20.97
		c-0.13-12.74-9.72-22.24-22.49-22.29c-6.38-0.02-12.77,0-19.15-0.01c-1.93,0-1.95-0.02-1.95-2.01c-0.01-3.42,0.04-6.84-0.02-10.26
		c-0.02-1.17,0.32-1.57,1.53-1.56c7.07,0.06,14.14-0.02,21.2,0.07c7.03,0.08,13.41,2.33,19.21,6.26c0.48,0.32,0.85,0.88,1.79,0.79
		c0-0.63,0-1.28,0-1.93c0-8.36,0-16.72,0-25.08c0-3.15,0-3.16-3-3.56c-9.54-1.27-17.89-5.15-25.13-11.44
		c-5.24-4.55-9.25-10.03-12.15-16.33c-0.19-0.41-0.36-0.84-0.51-1.26C216.82,199.73,216.87,199.57,216.89,199.15z"/>
	<path style="fill-rule:evenodd;clip-rule:evenodd;fill:#FFFEFE;" d="M180.37,117.79c-4.95,3.25-9.56,6.46-13.91,10.02
		c-29.17,23.86-47.87,54.12-55.62,91.06c-3.16,15.06-3.97,30.27-2.51,45.56c3.04,31.87,14.76,60.24,35.02,85.05
		c0.81,0.99,1.27,1.95,1.24,3.27c-0.07,4.18-0.03,8.36-0.03,12.54c0,0.5,0,1.01,0,1.56c-1-0.11-1.34-0.76-1.78-1.22
		c-20.39-21.61-34.27-46.8-41.4-75.66c-2.89-11.69-4.39-23.56-4.72-35.6c-1.47-53.33,22.67-103.21,63.29-135.61
		c1.14-0.91,2.26-1.32,3.71-1.3c4.79,0.07,9.57,0.02,14.36,0.03C178.68,117.5,179.35,117.36,180.37,117.79z"/>
	<path style="fill-rule:evenodd;clip-rule:evenodd;fill:#FFFEFE;" d="M384.53,366.86c0-5.14,0.03-10.07-0.02-15.01
		c-0.01-0.95,0.46-1.56,0.99-2.2c3.09-3.76,6.02-7.64,8.74-11.67c13-19.22,21.39-40.26,25.08-63.19c2.17-13.51,2.72-27.1,1.14-40.65
		c-5.72-48.81-29.13-87-69.57-114.82c-0.68-0.47-1.38-0.92-2.11-1.41c0.5-0.67,1.15-0.39,1.69-0.39c4.86-0.03,9.73,0.04,14.59-0.05
		c1.62-0.03,2.87,0.39,4.13,1.42c22.48,18.18,39.42,40.53,50.52,67.24c6.43,15.46,10.51,31.53,11.89,48.22
		c4.12,49.98-10.92,93.43-44.64,130.47c-0.56,0.62-1.16,1.2-1.75,1.79C385.12,366.69,384.95,366.7,384.53,366.86z"/>
	<path style="fill-rule:evenodd;clip-rule:evenodd;fill:#FFFEFE;" d="M353.89,245.21c0.22-0.82,0.76-1.17,1.15-1.61
		c16.1-18.27,6.58-47.04-17.23-52.06c-2.54-0.53-5.11-0.68-7.7-0.64c-1.91,0.03-1.94-0.02-1.95-1.8c-0.02-3.49,0.03-6.99-0.03-10.48
		c-0.02-1.17,0.34-1.58,1.54-1.61c23.45-0.64,42.07,15.63,46.21,36.18c3.01,14.95-0.61,28.28-10.64,39.82
		c-0.35,0.4-0.75,0.76-1.09,1.16c-0.46,0.55-0.85,0.44-1.31-0.03C359.83,251.13,356.82,248.13,353.89,245.21z"/>
	<path style="fill-rule:evenodd;clip-rule:evenodd;fill:#FFFEFE;" d="M165.33,254.5c-4.1-4.08-7.37-8.96-9.64-14.5
		c-10.94-26.64,5.12-56.53,33.39-62.15c3.44-0.68,6.93-0.83,10.43-0.85c1.1-0.01,1.45,0.4,1.43,1.47c-0.05,3.65-0.06,7.3,0,10.94
		c0.02,1.23-0.45,1.56-1.61,1.51c-3.67-0.17-7.27,0.28-10.8,1.35c-21.73,6.62-29.62,33.48-14.9,50.77c0.54,0.63,1.09,1.26,1.45,1.69
		C171.82,248.01,168.61,251.21,165.33,254.5z"/>
	<path style="fill-rule:evenodd;clip-rule:evenodd;fill:#FFFEFE;" d="M194.07,164.17c-1.82,0-3.65-0.06-5.46,0.02
		c-1.21,0.05-1.49-0.43-1.53-1.58c-0.66-20.53,13.14-38.8,33.13-43.82c3.4-0.85,6.85-1.26,10.35-1.32c1.17-0.02,1.6,0.33,1.58,1.54
		c-0.07,3.64-0.04,7.29-0.01,10.93c0.01,0.95-0.28,1.34-1.29,1.36c-2.58,0.06-5.15,0.35-7.65,1.02
		c-13.08,3.49-22.15,15.22-22.28,28.81c-0.03,3.04-0.03,3.04-2.98,3.04C196.65,164.17,195.36,164.17,194.07,164.17z"/>
	<path style="fill-rule:evenodd;clip-rule:evenodd;fill:#FFFEFE;" d="M297.01,124.36c0-1.75-0.02-3.49,0.01-5.24
		c0.02-1.61,0.04-1.63,1.65-1.62c6.39,0.03,12.55,1.31,18.25,4.18c14.67,7.38,23.07,19.22,24.88,35.63c0.2,1.82,0.2,3.63,0.25,5.45
		c0.03,1.12-0.42,1.44-1.48,1.43c-3.64-0.04-7.29-0.05-10.93,0c-1.16,0.02-1.61-0.33-1.57-1.56c0.08-2.27-0.01-4.54-0.42-6.8
		c-2.33-12.92-12.99-22.86-26.11-24.28c-0.45-0.05-0.9-0.13-1.36-0.17c-0.97-0.09-2.27,0.18-2.85-0.35
		c-0.83-0.75-0.26-2.15-0.32-3.26C296.96,126.64,297.01,125.5,297.01,124.36z"/>
	<path style="fill-rule:evenodd;clip-rule:evenodd;fill:#FFFEFE;" d="M283.32,104.68c-1.75,0-3.49,0.01-5.24,0
		c-1.65-0.02-1.66-0.03-1.94-1.72c-0.82-4.88-3.6-8.15-8.29-9.59c-6.78-2.09-13.64,2.3-14.97,9.44c-0.35,1.86-0.35,1.87-2.18,1.88
		c-3.34,0.01-6.68,0.02-10.02,0c-1.74-0.01-1.74-0.04-1.68-1.81c0.32-9.48,7.05-18.62,16.36-22.2c15.81-6.07,33.19,4.76,34.73,21.64
		c0.03,0.3,0.01,0.61,0.05,0.91c0.14,1.04-0.19,1.53-1.35,1.48C286.96,104.62,285.14,104.68,283.32,104.68z"/>
	<path style="fill-rule:evenodd;clip-rule:evenodd;fill:#CF122E;" d="M354.96,335.42c0,14.06,0,28.11,0,42.17
		c0,0.61-0.01,1.22-0.01,1.82c0,0.56-0.26,0.84-0.82,0.84c-0.68,0-1.37,0.01-2.05,0.01c-20.82,0-41.64,0-62.46,0
		c-0.46,0-0.91-0.01-1.37,0c-1.7,0.04-1.69,0.04-1.74,1.79c-0.08,2.57,0.11,5.15-0.34,7.72c-1.55,9.01-9.58,18.12-21.82,18.03
		c-10.95-0.08-20.13-8.27-21.51-18.92c-0.3-2.32-0.18-4.7-0.16-7.06c0.01-1.14-0.3-1.69-1.53-1.59c-0.98,0.08-1.97,0.02-2.96,0.02
		c-20.52,0-41.03,0-61.55-0.01c-2.83,0-2.52,0.34-2.52-2.59c-0.01-28.19-0.01-56.38,0-84.57c0-3.09-0.18-2.69,2.66-2.71
		c2.81-0.02,5.62-0.02,8.43,0c1.81,0.01,1.81,0.03,1.84,1.92c0.01,0.45,0,0.91,0,1.37c0,23.4,0,46.81,0,70.21c0,0.53,0,1.06,0,1.6
		c-0.01,2.11-0.08,1.98,1.99,1.98c15.43,0,30.85-0.01,46.27,0.01c10.6,0.01,19.38,6.99,21.77,17.28c0.24,1.03,0.4,2.1,0.46,3.15
		c0.1,1.69,0.17,1.66,1.95,1.66c3.34,0,6.69,0.01,10.03,0c1.82-0.01,1.82-0.02,1.99-1.78c0.97-9.67,7.47-17.31,16.75-19.65
		c1.92-0.48,3.88-0.67,5.87-0.67c15.04,0.02,30.09,0.01,45.13,0.01c0.53,0,1.07-0.03,1.6,0c0.84,0.05,1.3-0.23,1.24-1.16
		c-0.04-0.6-0.01-1.21-0.01-1.82c0-23.78,0-47.57,0.01-71.35c0-3.16-0.34-2.72,2.82-2.74c2.89-0.02,5.78,0.02,8.66-0.02
		c0.94-0.01,1.45,0.24,1.36,1.28c-0.05,0.53-0.01,1.06-0.01,1.6C354.96,307.31,354.96,321.37,354.96,335.42z"/>
</g>
<g>
</g>
<g>
</g>
<g>
</g>
<g>
</g>
<g>
</g>
<g>
</g>
<g>
</g>
<g>
</g>
<g>
</g>
<g>
</g>
<g>
</g>
<g>
</g>
<g>
</g>
<g>
</g>
<g>
</g>
</svg>
